<svg id="Calque_5" data-name="Calque 5" xmlns="http://www.w3.org/2000/svg" viewBox="0 0 393.3 398.3"><defs><style>.cls-1{fill:#c48080;}</style></defs><title>ruche</title><path class="cls-1" d="M389.69,381.18c-14.47,2.89-30,36-10,51.33S337,420.51,341,459.85s14.66,26-9.34,30-28,32.66-17.33,48-28.67,1.33-31.33,17.33-18,51.33,28.66,52-24.66,8.67-3.33,32,25.33,29.33,42,24-16.67,10.67-12.67,23.33.67,31.34,22,32,16-2,12,15.34.67,37.33,18,39.33,156,6,171.34-3.33,22.66-39.34,8-46.67,7.33-3.33,17.33-5.33,33.33-34,21.33-46,9.34,0,18.67-8.67,29.33-46,8.67-53.33,26,2,32-13.34,8-42-4-46.66-35.34,4-32.67-6,20-22.67,10-38-38-5.34-44-9.34,22.67-20,14-38.66S585.69,431.18,569,434.51s14.66-14.66,12-27.33-17.34-24-20.67-28S399.69,379.18,389.69,381.18Z" transform="translate(-278.5 -377.47)"/></svg>