<svg id="Calque_3" data-name="Calque 3" xmlns="http://www.w3.org/2000/svg" viewBox="0 0 638.97 517.09"><defs><style>.cls-1,.cls-3{fill:#725238;}.cls-2{fill:#f4ed06;}.cls-3{font-size:35px;font-family:Helvetica, Helvetica;}</style></defs><title>abeille-comprendre</title><path class="cls-1" d="M435.35,343c3.63,4,24.31,24.15,24.91,28s1.9,8.42,3.86,7,.59-4.9,2.92-6.31,6.56-2.75,5.54-5.44-7.56-.33-10.45-3.48-19.06-23.17-22.41-24.45S432.82,340.23,435.35,343Z" transform="translate(-109.44 -30.5)"/><path class="cls-1" d="M593.56,253.87c2.61-5.05,14.29-17.73,19.54-18s28.36-7,36.68-9.12,60.06-11.48,66.75-6.31-9,3.43-12.92,4.39-38.52,7.73-41.92,8.53-40.86,6.51-45.13,9S600.64,255,598.24,257.15,591.64,257.56,593.56,253.87Z" transform="translate(-109.44 -30.5)"/><path class="cls-2" d="M371.91,203.45c-32.71-13.08-129.11-21.18-183.59,37.32s-53.46,155.35,2,154.34c36.32-23.2,153.33-88.77,191.66-85.74s60.52-94.82,31.27-96.84S387,209.5,371.91,203.45Z" transform="translate(-109.44 -30.5)"/><path class="cls-2" d="M529.34,310.91c-9.13-11.33-32.93-43.81-34-54-1.58-15.59,5.09-24.07,17.06-25.25,11.76-1.16,22.54,1.46,37.17,3.92s71.72,16.16,86.69,42.09-6.89,39.6-17.61,47.12S595.88,342.55,585,348.26,538,321.64,529.34,310.91Z" transform="translate(-109.44 -30.5)"/><ellipse class="cls-1" cx="567.47" cy="286.99" rx="17.9" ry="37.57" transform="translate(8.53 706.31) rotate(-71.85)"/><path class="cls-1" d="M627.22,312.21c12.5-.78,36.75,9.67,43.16,10.44s28.49,19,33.74,30.27c.57-15.9-22.44-38.9-34.24-42.46s-33.28-14.69-37.41-10S622.82,312.49,627.22,312.21Z" transform="translate(-109.44 -30.5)"/><path class="cls-1" d="M580.13,246.06c-1.59-9.56-10.54-43-8.63-46.65s20.82-12.22,25.73-12.66,55.86-13.23,61.06-10.11,6.14,7.87.07,6.43-14.39.64-19.49,2.25-52,13.13-55.85,13.24-3.73.62-2.62,5.88,4.27,20.54,5.71,26-.18,12.69,1,15.41S580.76,249.79,580.13,246.06Z" transform="translate(-109.44 -30.5)"/><path class="cls-1" d="M254.9,201.43a3,3,0,0,0-1.32,2c-3.42,12.56,18.52,75.71,25.53,82.25,7.56,7.06,19.16,39.34,25.72,39.34s12.11-18.16,7.57-27.23-7.06-17.66-15.64-33.8-7.56-30.76-11.09-48.41-.51-21.19-6.56-19.67S257.93,199.92,254.9,201.43Z" transform="translate(-109.44 -30.5)"/><path class="cls-1" d="M195.39,233.21c5.54,17.65,33.79,62,36.81,67.58s19.67,27.74,27.74,27.24,28.75-13.62,16.14-22.7-31.27-21.18-37.82-27.74-14.63-28.24-14.63-37.82-2.52-20.68-3.53-24.72C214.05,220.6,199.42,229.17,195.39,233.21Z" transform="translate(-109.44 -30.5)"/><path class="cls-1" d="M172.69,259.44c3,8.06,10.59,28.24,16.14,30.76s31.27,15.64,36.31,17.65S242.29,319,246.33,323s11.09,27.74-11.6,19.17S189.33,320,185.8,313.4s-29.25-23.7-24.71-32.78S169.16,264,172.69,259.44Z" transform="translate(-109.44 -30.5)"/><path class="cls-1" d="M150.5,313.4c3.53,6.56,15.63,19.67,21.18,19.17s31.27,3,38.84,5.54,24.71,14.63,12.1,17.66-50.43-3-59.51-7.06-12.61-7.06-15.64-11.1C148,328.53,149,318.44,150.5,313.4Z" transform="translate(-109.44 -30.5)"/><path class="cls-1" d="M148.48,354.25c7.06,2,32.28,8.58,40.35,7.57s16.64,2.52,16.64,7.06-.25,13.62-3.78,18.66c-7.31,4.79-9.58,6.81-11.35,7.57-5,0-19.67-2-25.47-8.83S156.55,379.47,148.48,354.25Z" transform="translate(-109.44 -30.5)"/><path class="cls-1" d="M297.77,193.87c1.51,14.12,8.57,52.45,14.63,60S323,288.18,325,294.24s8.06,24.71,17.14,22.69,53.47-3,58.51-8.07,45.39-60,33.79-79.18S390.07,211.52,384,208.5s-21.18-13.12-32.27-13.62S304.83,192.36,297.77,193.87Z" transform="translate(-109.44 -30.5)"/><path class="cls-2" d="M532.3,212.53c-5-18.05-25.73-31-48.42-31.77s-73.39-6.06-87,15.13-37.07,59.76-25.73,89.27,36.32,64.3,55.23,62.79,75.65-24.21,85.49-36.31S536.08,226.15,532.3,212.53Z" transform="translate(-109.44 -30.5)"/><path class="cls-1" d="M402.22,299.89c-15.5,5.77-23.37,23.36-32.6,35.64s-22.85,29.71-20.37,36.55,26.88,42.93,29.36,49.76,3.67,11.55,7.59,6.66,3.64-6.9,7.12-6.82,8-3.9,3.56-5-12.2,2.08-13.77-1S365,378.15,364.83,374.21s37-54,38.15-57.26S406.22,298.4,402.22,299.89Z" transform="translate(-109.44 -30.5)"/><path class="cls-1" d="M426,318.05c6.49-.52,6.39,5.08,2,11.79s-18.15,32.43-15.95,39.32,9.6,39.19,12.06,42.85,3.81,10.57,6.37,11.35,6.92,12.86,2.6,9.58-7.41-5.57-7.71-4,2.84,5.51.83,6.24-6.2,2.52-5.6-7.64-23.28-51.89-24.9-55.57,9.56-31,15.77-39.82S423,318.29,426,318.05Z" transform="translate(-109.44 -30.5)"/><path class="cls-1" d="M473.29,321.47c6.62-4.56,9.83-4.16,10.21,0s.38,7.94,7.56,14,24.21,12.1,25.73,16.64-14.38,42.74-16.65,48,9.46,7.57,7.19,13.62-15.51-1.89-16.27-7.19,15.51-40.85,11.35-44.63-26.48-6.43-30.26-15.14S467.23,325.63,473.29,321.47Z" transform="translate(-109.44 -30.5)"/><path class="cls-1" d="M467.84,225.29c-2.44-3.92-5.13-8.35-3.47-13.1,1.27-3.64,4.23-6.48,6.5-9.51a20.65,20.65,0,0,0,2.05-22.3l-2.36,1.82c6.45,7.21,10.17,18,5.56,27.16-1.92,3.81-4.75,7.59-4.24,12.1s4.27,7.56,5.84,11.66c.68,1.79,3.58,1,2.89-.79-1.58-4.15-6.15-7.9-5.78-12.6.22-2.84,2-5.37,3.33-7.8a24.55,24.55,0,0,0,2.5-6.37c2-9.2-1.88-18.66-8-25.48-1.18-1.31-3.11.36-2.35,1.82a17.42,17.42,0,0,1,1.08,13.73c-1.34,3.88-4.27,6.83-6.7,10.05-2.12,2.82-3.89,6-3.89,9.62,0,4.23,2.27,8,4.43,11.5,1,1.63,3.62.13,2.59-1.51Z" transform="translate(-109.44 -30.5)"/><path class="cls-1" d="M472.59,183.18c7.71,3.89,17.42,10.25,15.42,20.33-.42,2.14-1.19,4.19-1.5,6.35a28.33,28.33,0,0,0,0,6.7c.47,4.95,1.1,9.89,1.66,14.84.21,1.89,3.22,1.92,3,0-.61-5.41-1.41-10.84-1.78-16.28a24.52,24.52,0,0,1,.89-8.26,20.16,20.16,0,0,0,1-7.1c-.85-9.53-9.33-15.24-17.12-19.17-1.72-.87-3.24,1.72-1.51,2.59Z" transform="translate(-109.44 -30.5)"/><path class="cls-1" d="M470.06,198a20,20,0,0,1-5.9-12.9c-.3-5.27,1.64-10.35,3.62-15.13,3.53-8.54,7.53-17.78,3.43-26.85L468.86,145c3.26,2.71,6.35,5.49,6.53,10,.16,4-1.55,7.72-2.89,11.36-2.15,5.83-3.48,12.82,1.34,17.75,1.35,1.38,3.47-.74,2.12-2.13-5.9-6,.06-14.91,1.71-21.4a16.3,16.3,0,0,0-.2-10.15c-1.29-3.18-3.92-5.45-6.49-7.59a1.51,1.51,0,0,0-2.36,1.82c4.6,10.18-2.89,20.85-5.91,30.32-2.86,9-1.57,18.32,5.23,25.17a1.5,1.5,0,0,0,2.12-2.12Z" transform="translate(-109.44 -30.5)"/><path class="cls-1" d="M470.66,145.75c6.08,5.91,13.81,12.69,11.18,22.11-1,3.66-2.23,7-1.89,10.83a19.42,19.42,0,0,0,3.73,9.84c1.13,1.54,3.73.05,2.59-1.52A16.49,16.49,0,0,1,483,174.77c.59-3.94,2.63-7.46,2.39-11.54-.5-8.33-7.08-14.18-12.65-19.6-1.39-1.35-3.51.77-2.12,2.12Z" transform="translate(-109.44 -30.5)"/><path class="cls-1" d="M471.79,146.22c9.39.89,16.12,9.12,17.64,18a33.71,33.71,0,0,1-1.13,15.13c-1.4,4.74-3.27,9.22-2.28,14.24.37,1.89,3.26,1.09,2.89-.8-1.17-6,2.53-11.94,3.44-17.75a32.69,32.69,0,0,0-1.11-15.8c-2.95-8.53-10.32-15.18-19.45-16.05-1.92-.18-1.91,2.82,0,3Z" transform="translate(-109.44 -30.5)"/><path class="cls-1" d="M464.61,205.44c-5.49-2.06-10.4-4.53-12.21-10.51-1.4-4.61-1.28-9.53-2-14.26s-2.37-9-5.92-12.34c-4.16-3.87-9.61-6.44-14.47-9.31l-.36,2.75c4.08-1,8.71-1,12.36,1.37,3.43,2.2,5.1,6.08,6.74,9.64,2.82,6.06,7.26,12.9,14.91,11.8,1.9-.27,1.09-3.16-.8-2.89-8.76,1.26-11.25-11.72-15.06-17-4.43-6.16-11.89-7.43-18.95-5.81a1.52,1.52,0,0,0-.36,2.74c5,2.93,11.06,5.58,15,9.94,3.74,4.17,4.12,9.88,4.6,15.19.41,4.54.86,9.34,3.33,13.3,2.8,4.49,7.64,6.51,12.4,8.29,1.81.68,2.59-2.22.8-2.89Z" transform="translate(-109.44 -30.5)"/><path class="cls-1" d="M432.62,162.5c3.47-1.24,7.11-2.57,10.84-2.57a14.29,14.29,0,0,1,8.62,3.13c4.21,3.08,7.84,7.17,13.22,8.1,1.89.32,2.7-2.57.8-2.9-6-1-9.71-6.42-14.8-9.28-6.29-3.54-13.1-1.64-19.48.63-1.8.64-1,3.54.8,2.89Z" transform="translate(-109.44 -30.5)"/><path class="cls-1" d="M431.83,161.76q4.19-2.28,8.36-4.54c2.8-1.51,5.7-3.05,9-2.78,2.87.23,5.61,1.54,8.24,2.61l9,3.68c1.79.73,2.56-2.18.8-2.89l-9.9-4c-2.88-1.17-5.85-2.39-9-2.41a17.74,17.74,0,0,0-8.12,2.41c-3.33,1.71-6.6,3.57-9.89,5.36-1.7.92-.19,3.51,1.51,2.59Z" transform="translate(-109.44 -30.5)"/><path class="cls-1" d="M464.52,221.71c-4.23-3-9.43-2.25-14.18-1.17-6.25,1.42-12.5,3-18.64.22-5-2.27-8.93-6.5-14.09-8.37-4.07-1.47-9.49-.15-10.41,4.64l2.95.4a8.83,8.83,0,0,1,9.22-9c5,0,9.42,2.75,13.88,4.71a27.75,27.75,0,0,0,13,2.53c5.18-.3,10.19-1.8,15.12-3.32,1.84-.57,1.06-3.47-.79-2.9-5.82,1.8-11.87,3.69-18,3.2-5.83-.46-10.65-3.8-16-5.78-4.24-1.56-9.17-2.21-13.31,0a11.81,11.81,0,0,0-6.09,10.62c0,1.63,2.62,2.11,3,.4,1.27-6.68,9.89-.91,12.77,1.06,3.82,2.6,7.75,5.31,12.4,6.13s9.41,0,14-1.14,9.62-2.46,13.74.42c1.58,1.11,3.08-1.49,1.51-2.59Z" transform="translate(-109.44 -30.5)"/><path class="cls-1" d="M410,215.38A11.16,11.16,0,0,1,413.34,204c4.16-3.66,10.25-2.86,15.24-1.87,7.65,1.53,16.63,3.83,23-2.18,1.4-1.33-.72-3.45-2.12-2.13-7.94,7.5-20.55-.36-29.84.58-8.74.9-14.92,9.07-12.49,17.75a1.51,1.51,0,0,0,2.9-.8Z" transform="translate(-109.44 -30.5)"/><path class="cls-1" d="M409.83,215.71c-1.33-9.39-1.49-25.26,11-26.59,5.36-.57,10.15,1.73,15.18,3.13,4.09,1.14,8.5,1.09,11.72-2,1.39-1.34-.73-3.46-2.12-2.12-4.56,4.4-11.82-.06-16.84-1.27-4.85-1.16-10.24-1.28-14.66,1.35-9,5.38-8.44,19.39-7.17,28.3.26,1.91,3.16,1.1,2.89-.79Z" transform="translate(-109.44 -30.5)"/><path class="cls-1" d="M418.37,186.28c-5.93-4.65-3.79-13.15-4.93-19.64a21.77,21.77,0,0,0-9.47-14.2l-1.15,2.74a20.47,20.47,0,0,1,13.23,16.73c.48,3.73.8,7.25,2.35,10.73a25.37,25.37,0,0,0,6.33,8.63c1.44,1.29,3.57-.83,2.13-2.12a22.47,22.47,0,0,1-6.8-10.68c-1.13-4.05-.81-8.32-2.3-12.3a23.62,23.62,0,0,0-14.15-13.88c-1.67-.61-2.49,1.84-1.15,2.74,6.12,4.12,8.27,10.41,8.47,17.52.16,5.68.46,12,5.32,15.85,1.5,1.18,3.64-.93,2.12-2.12Z" transform="translate(-109.44 -30.5)"/><path class="cls-1" d="M403,153.26c4.09,3,9.5,2.06,13.11,6,3.3,3.61,5.48,8.42,7.93,12.61,4.68,8,9.87,15.92,17.9,20.91,1.65,1,3.15-1.58,1.51-2.59-8.47-5.27-13.49-14.08-18.36-22.49-2.25-3.87-4.35-8.26-7.65-11.37a13.44,13.44,0,0,0-5.56-3.11c-2.55-.74-5.16-.94-7.37-2.56-1.56-1.14-3.05,1.46-1.51,2.59Z" transform="translate(-109.44 -30.5)"/><path class="cls-1" d="M404.08,154.81c8.66-1.56,15.17,5.82,20.68,11.28,5,5,10.95,9.69,18.4,9.5,1.93-.05,1.93-3.05,0-3-8.87.23-14.72-7.3-20.54-12.86-5.26-5-11.78-9.17-19.34-7.81-1.89.34-1.09,3.23.8,2.89Z" transform="translate(-109.44 -30.5)"/><path class="cls-1" d="M421.08,158.05c-2.91-7.14,1.56-14.06,3.13-20.94s-.42-13.25-3.5-19.32l-2.06,2a21.78,21.78,0,0,1,6.67,8c1.79,3.7,2.09,7.64,2.42,11.68.57,6.81,2.44,12.75,8.3,16.77,1.6,1.09,3.1-1.51,1.51-2.59-7.22-5-6.2-13.1-7.5-20.74a24.83,24.83,0,0,0-9.88-15.76c-1.31-1-2.67.85-2.05,2a31.79,31.79,0,0,1,3.58,10.61c.41,3.66-.44,7.09-1.59,10.55-2,5.94-4.44,12.2-1.92,18.39.72,1.76,3.62,1,2.89-.8Z" transform="translate(-109.44 -30.5)"/><path class="cls-1" d="M421.85,122.15c4-.71,7.45,2.18,10,4.9a23.7,23.7,0,0,1,6,9.67c1.74,5.8,2.65,12.44,8.46,15.67,1.69.94,3.21-1.65,1.52-2.59-7-3.91-5.81-14.29-10.1-20.34-3.77-5.33-9.59-11.47-16.74-10.2-1.9.34-1.09,3.23.8,2.89Z" transform="translate(-109.44 -30.5)"/><path class="cls-1" d="M422.57,121.28c9.42-1.41,18.14,5.83,23.17,13.13,4.24,6.18,1.89,16.34,9.44,20.24,1.71.88,3.23-1.7,1.51-2.59-4.46-2.3-4.5-7.89-5.42-12.19S448,132,445,128.77c-6-6.61-13.94-11.77-23.21-10.38-1.91.29-1.1,3.18.79,2.89Z" transform="translate(-109.44 -30.5)"/><path class="cls-1" d="M453.2,142.36c-2-8.14,4.06-15,7.17-22a30.17,30.17,0,0,0,1.54-20.27l-2.74,1.16a32.31,32.31,0,0,1,3.93,29.43c-1.52,4.13-2.42,7.88-1.6,12.31a20.12,20.12,0,0,0,2.16,6,19,19,0,0,0,1.8,2.65,13.31,13.31,0,0,0,.92,1.07c.19.22,1.11,1.52,1.1.58l1.1-1.45-.22.08,1.46.39-.12-.14c-1.25-1.47-3.36.66-2.12,2.13l.12.13a1.47,1.47,0,0,0,1.46.39l.22-.09a1.54,1.54,0,0,0,1.1-1.44c0-1.67-2.59-3.26-3.49-4.61a17.2,17.2,0,0,1-2.6-6.5c-1-5.34,1.55-9.44,2.72-14.45a35.29,35.29,0,0,0-5.35-28A1.5,1.5,0,0,0,459,100.9c2.19,8.14.3,15.49-3.67,22.71-3.33,6.06-6.77,12.42-5.05,19.55.46,1.87,3.35,1.08,2.9-.8Z" transform="translate(-109.44 -30.5)"/><path class="cls-1" d="M460.9,103.9c2.12-.46,4.82,3,6,4.38a28.88,28.88,0,0,1,3.47,5.22,33.68,33.68,0,0,1,3.48,11c.59,4.14.06,8.08-.1,12.21-.13,3.63.6,7.36,3.53,9.77,1.48,1.22,3.61-.89,2.12-2.12-4.12-3.39-2.31-9.3-2.21-13.89a39.1,39.1,0,0,0-1.79-12.62A33.84,33.84,0,0,0,470,107.31c-2.26-2.9-5.76-7.2-9.87-6.3-1.88.41-1.08,3.31.8,2.89Z" transform="translate(-109.44 -30.5)"/><path class="cls-1" d="M462.23,102c9.68,4,14.79,13,16.54,22.93,1.55,8.78-.41,19,4.93,26.74,1.09,1.58,3.7.08,2.59-1.51-3.06-4.41-3.33-9.71-3.56-14.91a69.93,69.93,0,0,0-2-15.18c-2.54-9.51-8.58-17.16-17.74-21-1.78-.74-2.56,2.16-.8,2.9Z" transform="translate(-109.44 -30.5)"/><path class="cls-1" d="M432.85,119c-3.67-6.57-1.62-14.17-.47-21.13,1-6.28,1.46-12.85-1.91-18.53l-2.36,1.82c3.26,3.51,6.59,7.12,8.69,11.48,2.53,5.27,1.65,10.64,1.51,16.26-.26,9.9,5.46,17.34,11.65,24.47,1.27,1.46,3.38-.67,2.12-2.12-3.19-3.67-6.4-7.43-8.57-11.82-2.57-5.22-2.17-10.4-1.89-16a24.49,24.49,0,0,0-2.77-13.32c-2.24-4.12-5.45-7.63-8.62-11a1.5,1.5,0,0,0-2.35,1.81c3.85,6.48,1.91,14.12.74,21.08-1.07,6.29-1.58,12.82,1.64,18.58.94,1.69,3.53.18,2.59-1.51Z" transform="translate(-109.44 -30.5)"/><path class="cls-1" d="M430.89,83.23a30.08,30.08,0,0,1,13.82,17.62c1.05,3.7,1.4,7.36,3.62,10.62a36.84,36.84,0,0,0,7.64,7.58c1.48,1.2,3.62-.91,2.12-2.12-3-2.46-6.33-5-8.15-8.6s-2-7.94-3.54-11.71a33.14,33.14,0,0,0-14-16,1.5,1.5,0,0,0-1.51,2.59Z" transform="translate(-109.44 -30.5)"/><path class="cls-1" d="M430.34,82.72A27.5,27.5,0,0,1,447,93c2,2.64,3.24,5.75,5.24,8.38a16.18,16.18,0,0,0,7,5.19c1.79.73,2.56-2.17.8-2.89-6.65-2.71-8.36-10.53-13.13-15.36a30.43,30.43,0,0,0-15.77-8.44c-1.89-.37-2.7,2.52-.8,2.89Z" transform="translate(-109.44 -30.5)"/><path class="cls-1" d="M407.32,199.34c-3.81-2.88-8.42-4-12.66-6a20.07,20.07,0,0,1-10.26-11.58c-2.81-7.8-4-18.17-13.32-20.94v2.9A20.7,20.7,0,0,1,384.36,166c4.18,2.29,7,6,9.38,10,4.18,7.12,7.68,15.08,15.84,18.38,1.78.73,2.56-2.17.79-2.89-9.19-3.73-11.73-14.89-17.43-22a23.8,23.8,0,0,0-22.65-8.59c-1.54.26-1.32,2.51,0,2.9,9.79,2.91,9,16.59,13.56,23.88a22.41,22.41,0,0,0,9.3,8.33c4.23,2.05,8.86,3.14,12.66,6,1.53,1.17,3-1.44,1.51-2.59Z" transform="translate(-109.44 -30.5)"/><path class="cls-1" d="M374.2,162c6.5-1.55,15.61-3.37,21.13,1.56,2.36,2.1,3.95,4.9,6.48,6.84a15.34,15.34,0,0,0,8,3c1.92.2,1.9-2.8,0-3-4.1-.42-6.89-2.71-9.44-5.75-2-2.35-3.94-4.54-6.82-5.76-6.2-2.63-13.8-1.27-20.11.23-1.88.45-1.08,3.34.8,2.9Z" transform="translate(-109.44 -30.5)"/><path class="cls-1" d="M369.36,160.88l.78,1a1.52,1.52,0,0,0,2.59,0c3.31-5.46,11.58-3.38,16.68-2.39A93.76,93.76,0,0,1,406,164.38c1.8.71,2.58-2.19.8-2.89a94.18,94.18,0,0,0-21.07-5.61c-5.65-.8-12.24-1-15.58,4.52h2.59l-.78-1c-1.13-1.54-3.74,0-2.59,1.51Z" transform="translate(-109.44 -30.5)"/><path class="cls-1" d="M399.06,158.38c-6-5.68-3.1-14.85-2.72-22,.44-8.19-3.39-14.69-7.9-21.19l-.9,2.2c1.27-.51,4.13,2.84,5,3.66a52.57,52.57,0,0,1,4.11,4.2,21.82,21.82,0,0,1,5.21,10.17c1.23,6.77-.34,15.45,6.92,19.32,1.7.91,3.22-1.68,1.51-2.59-4.32-2.3-4.73-7.47-5-11.83-.24-4.07-.71-7.88-2.61-11.55a35.44,35.44,0,0,0-7.18-9c-2-1.94-5.62-6.52-8.79-5.24a1.51,1.51,0,0,0-.9,2.2c2.38,3.44,4.87,7,6.31,10.92,1.59,4.39,1.28,8.77.74,13.32-.81,6.76-1.39,14.46,4,19.57,1.41,1.32,3.54-.8,2.12-2.12Z" transform="translate(-109.44 -30.5)"/><path class="cls-1" d="M387.54,115.86c6.77,0,14.63,2.2,17.94,8.69,1.69,3.31,2.55,6.66,5.17,9.45a18.6,18.6,0,0,0,8.81,5.18,1.5,1.5,0,0,0,.8-2.89,15.51,15.51,0,0,1-9.46-7c-1.94-3.3-2.57-6.91-5.27-9.78-4.55-4.84-11.57-6.56-18-6.6a1.5,1.5,0,0,0,0,3Z" transform="translate(-109.44 -30.5)"/><path class="cls-1" d="M387.13,116.1a22.27,22.27,0,0,1,20.1,2.41c4.74,3.25,8.46,8.65,14.77,8.5,1.93,0,1.94-3,0-3-3.51.08-6.15-2.18-8.67-4.36a33.69,33.69,0,0,0-8-5.63,25.31,25.31,0,0,0-19-.81c-1.8.65-1,3.55.8,2.89Z" transform="translate(-109.44 -30.5)"/><path class="cls-1" d="M406.65,113.94c-2.9-2.39-2.69-6.11-2.55-9.54A25.57,25.57,0,0,0,403,95.16c-1.91-5.83-5.8-10.75-9.79-15.31l-1.46,2.51a21.71,21.71,0,0,1,17,16.62c.46,2.23.44,4.54,1.07,6.74a20.43,20.43,0,0,0,2.84,5.75,33.4,33.4,0,0,0,9.2,9c1.61,1.07,3.12-1.53,1.52-2.59a28.34,28.34,0,0,1-9.78-10.7c-2.08-4.17-1.52-9.11-3.39-13.43a24.73,24.73,0,0,0-17.7-14.29A1.52,1.52,0,0,0,391.12,82c4.32,4.94,8.7,10.5,9.81,17.15,1,5.73-1.61,12.64,3.6,16.95,1.48,1.22,3.61-.9,2.12-2.13Z" transform="translate(-109.44 -30.5)"/><path class="cls-1" d="M394.22,82.18c3.71.26,8.67-.22,12,1.55s5.12,5.67,6.85,8.91c3.27,6.09,8.15,10.57,14.91,12.43a1.5,1.5,0,0,0,.8-2.89,20.09,20.09,0,0,1-9.89-6.1c-2.62-3-3.91-6.86-6.16-10.12a13.75,13.75,0,0,0-6.68-5.55c-3.65-1.24-8-1-11.84-1.23-1.93-.13-1.92,2.87,0,3Z" transform="translate(-109.44 -30.5)"/><path class="cls-1" d="M394.82,82.07a101,101,0,0,1,11-2.26c3.63-.36,6.38,1.38,8.95,3.76,4.7,4.38,8.73,8.4,15.28,9.76,1.88.39,2.69-2.5.8-2.9a20.57,20.57,0,0,1-10-5.16c-2.31-2.12-4.37-4.52-7-6.3-6-4.11-13.35-1.18-19.81.2-1.89.41-1.09,3.3.8,2.9Z" transform="translate(-109.44 -30.5)"/><path class="cls-1" d="M383.46,184.54A80.35,80.35,0,0,1,371.33,178,30.42,30.42,0,0,1,362,167.17c-2.05-3.75-4.12-7.36-7.55-10-3.7-2.86-8.11-4.5-12.45-6.09l1.1,1.44c-.05-.43,8-1.47,8.83-1.52,3-.17,5.51.49,7.36,2.94,2.64,3.48,4.51,8.23,9.66,8.1,1.93,0,1.94-3,0-3-3.85.1-5.33-4.36-7.29-6.93a9.74,9.74,0,0,0-6.69-4c-3.06-.42-6.15.25-9.16.76-2.07.36-6.07.62-5.71,3.65a1.58,1.58,0,0,0,1.1,1.45c4.43,1.62,9.1,3.32,12.62,6.58s5.09,7.71,7.59,11.6c4.79,7.44,12.78,11.4,20.55,15,1.74.81,3.27-1.78,1.52-2.59Z" transform="translate(-109.44 -30.5)"/><path class="cls-1" d="M343.33,152.1c6.61-5.85,18.29-11.1,26.83-6.39,7,3.88,11,12.74,20.09,12.48,1.93-.05,1.94-3.05,0-3-5.26.15-9-3.81-12.5-7.2-3.19-3.1-6.63-5.88-11.12-6.67-9.07-1.59-18.76,2.76-25.42,8.66-1.45,1.29.68,3.4,2.12,2.12Z" transform="translate(-109.44 -30.5)"/><path class="cls-1" d="M344.47,149.94a26.64,26.64,0,0,1,9.9-9.87c4.05-2.41,10.2-5.62,15-4.39,2.3.58,4.19,2.2,6,3.6a53.38,53.38,0,0,0,6.53,4.31c3.58,2,7.81,3.57,11.63,1.32a1.5,1.5,0,0,0-1.51-2.59c-4.62,2.72-11.29-2.72-14.83-5.39-4.07-3.08-7.7-5.23-13-4.12-8.92,1.86-17.93,7.57-22.4,15.61-.94,1.69,1.65,3.2,2.59,1.52Z" transform="translate(-109.44 -30.5)"/><path class="cls-1" d="M359.55,136c-2.5-3.43-4.92-6.88-5.78-11.11-.82-4-.48-8.18-.78-12.26-.44-5.8-2.44-12.09-8-14.89l-1.15,2.74c7.33,2.62,13.26,8.05,15.12,15.77,1.65,6.87,1.66,14.43,7.88,19,1.56,1.14,3.06-1.46,1.52-2.59-6.73-4.93-4.94-15.37-8.28-22.22-3.05-6.26-9-10.55-15.45-12.85-1.59-.57-2.67,2-1.15,2.74,6.43,3.25,6.52,11.34,6.68,17.57a33.78,33.78,0,0,0,1.37,10.3,36.27,36.27,0,0,0,5.4,9.31c1.13,1.55,3.73.06,2.6-1.51Z" transform="translate(-109.44 -30.5)"/><path class="cls-1" d="M344.42,101.3a31.62,31.62,0,0,1,15.6,3.58c5.33,3,8.17,7.81,9.78,13.59,2.48,8.89,4.32,21.77,15.45,23.71,1.88.34,2.7-2.56.79-2.89-12.31-2.15-11.32-19.35-15.75-28-4.83-9.48-15.87-13-25.87-12.94a1.5,1.5,0,0,0,0,3Z" transform="translate(-109.44 -30.5)"/><path class="cls-1" d="M346,100.75c5.16-.71,10.41-.81,15.16,1.62a31.24,31.24,0,0,1,10.17,9.07c5,6.5,10.63,14.23,19.93,12.92,1.91-.27,1.1-3.16-.79-2.9-10.17,1.44-15.34-11.41-21.49-17.14a26.29,26.29,0,0,0-9.88-6c-4.51-1.44-9.27-1.08-13.89-.45-1.91.27-1.1,3.16.79,2.9Z" transform="translate(-109.44 -30.5)"/><path class="cls-1" d="M343.92,145c-9.59-.21-11.07-12.24-12.18-19.37-1-6.71-3.25-14.2-9.94-17.3l-.36,2.74c9.37-1.32,15,8,17.37,15.62,1.92,6.1,3.91,14.16,11.72,14.43,1.93.07,1.93-2.93,0-3-5.1-.17-6.91-5.68-8.1-9.74a45.17,45.17,0,0,0-4.21-10.6c-3.7-6.24-10.12-10.65-17.58-9.6a1.51,1.51,0,0,0-.36,2.74c8.54,3.95,8,14.95,9.78,22.75,1.53,6.89,6,14.16,13.86,14.33,1.93,0,1.93-3,0-3Z" transform="translate(-109.44 -30.5)"/><path class="cls-1" d="M322.12,110.27c3,0,6-.18,9,0a9.83,9.83,0,0,1,8.17,4.55c2.66,3.68,5.58,8.25,10.78,7.73,1.91-.19,1.93-3.19,0-3-5.74.57-7.83-7.21-11.74-10.11-4.43-3.29-11.08-2.18-16.23-2.14a1.5,1.5,0,0,0,0,3Z" transform="translate(-109.44 -30.5)"/><path class="cls-1" d="M319.91,109.64c2.9-.93,5.82-2.07,8.78-2.75,3.56-.81,6.26.39,9.45,1.83,3.91,1.77,8.44,2.84,12-.27,1.45-1.27-.68-3.39-2.12-2.12-4.05,3.57-10-1.56-14.12-2.5-4.93-1.12-10.14,1.44-14.75,2.91-1.83.59-1.05,3.49.79,2.9Z" transform="translate(-109.44 -30.5)"/><path class="cls-1" d="M370.61,104a13.75,13.75,0,0,1-3.3-9.32c0-3.28.42-6.48-.32-9.71-1.29-5.68-5.12-10.35-8.75-14.73l-1.06,2.56a16.51,16.51,0,0,1,13.06,8c2.52,4.15,3.65,9,5,13.59,2.18,7.65,5.62,15.81,13.61,18.8,1.81.68,2.59-2.22.8-2.89-9.37-3.51-10.8-15.31-13.51-23.55-3-9-8.89-16.26-18.92-17-1.42-.1-1.82,1.65-1.06,2.56,4.18,5,8.37,10.4,8.35,17.26,0,3.13-.43,6.25.26,9.34a16.61,16.61,0,0,0,3.76,7.16c1.27,1.46,3.38-.67,2.12-2.12Z" transform="translate(-109.44 -30.5)"/><path class="cls-1" d="M358.25,72c5.64-.66,11.12,1.35,15.91,4.22a24,24,0,0,1,9.49,10.82c1.7,3.52,3.15,7.23,5.75,10.21,3.2,3.67,7.72,3.82,11.59,6.31,1.63,1,3.14-1.55,1.52-2.59-2.11-1.35-4.48-1.85-6.76-2.78a12,12,0,0,1-5.36-4.55c-2.47-3.65-3.76-8-6.06-11.72-5-8.2-16.47-14-26.08-12.92-1.89.21-1.91,3.22,0,3Z" transform="translate(-109.44 -30.5)"/><path class="cls-1" d="M359.85,71.3c6.33-4.57,14-4,20.23.4,4.93,3.53,9.25,8.16,15.67,8.5,1.93.11,1.93-2.89,0-3-7.14-.37-11.69-7.35-17.76-10.29a19.47,19.47,0,0,0-19.66,1.8c-1.55,1.11-.05,3.72,1.52,2.59Z" transform="translate(-109.44 -30.5)"/><path class="cls-1" d="M397.09,77.13c-6.87-10.48-.27-27.65-12.88-34.92l-.76,2.8c9,.47,13.54,9.46,16,16.94,2,6.28,3.11,15.46,10.13,18.17,1.8.7,2.58-2.2.8-2.89-4.21-1.63-5.36-7.27-6.52-11.1a80.27,80.27,0,0,0-4.17-11.77c-3.11-6.42-8.77-12-16.21-12.35a1.51,1.51,0,0,0-.76,2.79c5.49,3.16,6.89,9.9,7.45,15.73.59,6.25.81,12.7,4.36,18.12,1.05,1.6,3.65.1,2.59-1.52Z" transform="translate(-109.44 -30.5)"/><path class="cls-1" d="M386.31,45.09c11.75.33,24.15,3.54,27.23,16.38,1.24,5.14,2.08,10,5.39,14.28,3.08,4,7.23,7,11.29,9.91,1.58,1.13,3.08-1.47,1.52-2.59-4.56-3.27-9.39-6.74-12.16-11.76s-2.5-11.38-5.27-16.58c-5.34-10.08-17.64-12.35-28-12.64-1.93-.05-1.93,2.95,0,3Z" transform="translate(-109.44 -30.5)"/><path class="cls-1" d="M381.66,45.89c4.63,4,1.92,11.16,2,16.37a35.08,35.08,0,0,0,4.07,15.39c.89,1.71,3.48.2,2.59-1.52a32.31,32.31,0,0,1-3.46-18.35c.49-4.92,1.06-10.44-3.11-14-1.46-1.25-3.6.87-2.13,2.12Z" transform="translate(-109.44 -30.5)"/><path class="cls-1" d="M335.15,104.78c-6.71-4-6.27-13-7.36-19.68-1-5.93-3.65-11.84-9.62-14.06l-.8,2.89c3.74.55,7.64,1.16,11.07,2.81,3.94,1.9,6,5,7.49,9,1.26,3.47,2.51,6.74,5,9.53a32.42,32.42,0,0,0,9.21,6.74c1.7.91,3.22-1.68,1.51-2.59-3.69-2-7.4-4.3-9.81-7.81s-3-7.87-5.16-11.5c-3.88-6.44-11.62-8.09-18.51-9.1a1.5,1.5,0,0,0-.8,2.89c7.39,2.76,7.49,12.28,8.37,18.76.78,5.71,2.67,11.57,7.9,14.68a1.5,1.5,0,0,0,1.51-2.59Z" transform="translate(-109.44 -30.5)"/><path class="cls-1" d="M319.64,73.79c8.5-4.13,17.41-.88,23.14,6.09,2.82,3.43,5.22,7.2,8.78,10a17.36,17.36,0,0,0,4.83,2.69,13,13,0,0,0,2.66.61,11.65,11.65,0,0,0,1.56.08c1,.06,1,0,.26-.31l-.24-1.82-.07.12,1.29-.74h-.16l1.5,1.5v-.09c0-1.93-3-1.94-3,0V92a1.54,1.54,0,0,0,1.5,1.5h.16a1.5,1.5,0,0,0,1.3-.74l.07-.12a1.51,1.51,0,0,0-.23-1.82c-1.37-1.14-3.39-.46-5.06-.91a15.69,15.69,0,0,1-6.68-4.31c-3.55-3.58-6-8.14-9.81-11.46a21.37,21.37,0,0,0-23.32-2.9c-1.73.84-.22,3.43,1.52,2.59Z" transform="translate(-109.44 -30.5)"/><path class="cls-1" d="M319,73.45c3.94-2.07,8.13-4.26,12.63-4.68s8.09,1.43,11.58,4c5.43,4.06,11.64,9.55,18.93,6.86,1.8-.67,1-3.57-.8-2.9-8.28,3.07-14.57-6.29-21.23-9.44-7.72-3.67-15.64-.12-22.63,3.54-1.71.89-.19,3.48,1.52,2.59Z" transform="translate(-109.44 -30.5)"/><path class="cls-1" d="M349.86,72.83a22,22,0,0,1-4.15-9.34c-.66-3.76-.09-7.61-.38-11.39A37.81,37.81,0,0,0,339,34l-1.69,2.2a15.81,15.81,0,0,1,9.53,4.8c2.6,2.79,3.71,6.39,4.58,10,1.5,6.26,2.89,13.07,8.82,16.66a1.5,1.5,0,0,0,1.52-2.59c-6.93-4.2-6.4-13.71-9.14-20.42a18.43,18.43,0,0,0-14.51-11.36c-1.17-.16-2.51,1-1.7,2.2a35.53,35.53,0,0,1,6,20.16c0,6.89.59,13,4.83,18.67,1.14,1.54,3.74,0,2.59-1.51Z" transform="translate(-109.44 -30.5)"/><path class="cls-1" d="M339.31,36.1a20.25,20.25,0,0,1,21,9.22c4.35,7.3,3.2,17.56,11.5,22.27A1.5,1.5,0,0,0,373.29,65c-4.78-2.71-6-8.25-7.35-13.16-1.17-4.32-2.72-8.32-5.79-11.65a23.34,23.34,0,0,0-21.63-7c-1.89.38-1.09,3.27.79,2.89Z" transform="translate(-109.44 -30.5)"/><path class="cls-1" d="M340,35.13a23.93,23.93,0,0,1,24.17,8.67c2.76,3.66,4.9,7.41,8.69,10.14a24,24,0,0,0,12.11,4.31c1.93.16,1.92-2.84,0-3a20.61,20.61,0,0,1-13.17-6.17c-3.46-3.59-5.47-8.2-9.39-11.41a27.15,27.15,0,0,0-23.21-5.43c-1.88.43-1.09,3.33.8,2.89Z" transform="translate(-109.44 -30.5)"/><path class="cls-1" d="M323.52,66.07c-6.14-4.2-6.94-12.36-9.66-18.7-2.52-5.9-7.1-10.11-12.7-13.07l-.76,2.8c9,.46,17.47,3.12,22.07,11.4,2,3.57,3.15,7.47,4.77,11.2,1.36,3.12,3.24,5.86,6.58,7,1.83.62,2.62-2.28.8-2.9-4-1.36-5.2-6.75-6.59-10.27a38.1,38.1,0,0,0-5.84-10.74c-5.35-6.37-13.85-8.27-21.79-8.68a1.51,1.51,0,0,0-.76,2.79,27.64,27.64,0,0,1,8,6.07c2.55,2.91,3.9,6.47,5.08,10.1C314.69,59,316.63,65,322,68.66c1.6,1.09,3.1-1.51,1.52-2.59Z" transform="translate(-109.44 -30.5)"/><path class="cls-1" d="M301.65,36.07c4.11-.89,8.49-1.66,12.65-.64,3.71.9,6.53,3.34,9.23,5.89,4.82,4.55,10.5,9.69,17.68,7.81a1.51,1.51,0,0,0-.8-2.9c-8.05,2.12-13.55-6.78-19.21-10.82-6.12-4.37-13.37-3.74-20.35-2.23-1.89.41-1.09,3.3.8,2.89Z" transform="translate(-109.44 -30.5)"/><path class="cls-1" d="M301.11,36.3c5.68-3.72,12.5-3.3,18.7-1.2,5.92,2,11.17,6,17.45,6.85,1.89.26,2.7-2.63.8-2.9-7.13-1-13.09-5.82-20-7.62-6.22-1.61-12.94-1.32-18.43,2.28-1.61,1-.11,3.65,1.51,2.59Z" transform="translate(-109.44 -30.5)"/><path class="cls-1" d="M601.22,337.33c-5.61-.86-11.47-2.45-16.31-5.52-3.64-2.32-7.82-8.82-2.53-11.95a1.5,1.5,0,0,0-1.51-2.59c-5.15,3-4.71,10-1.13,14.09,4.85,5.54,13.73,7.8,20.69,8.86,1.89.29,2.7-2.6.79-2.89Z" transform="translate(-109.44 -30.5)"/><text class="cls-3" transform="translate(35.49 473.26)">Suis Mireille pour mieux comprendre</text></svg>