<?xml version="1.0" encoding="utf-8"?>
<!-- Generator: Adobe Illustrator 22.1.0, SVG Export Plug-In . SVG Version: 6.00 Build 0)  -->
<svg version="1.1" id="Calque_1" xmlns="http://www.w3.org/2000/svg" xmlns:xlink="http://www.w3.org/1999/xlink" x="0px" y="0px"
	 viewBox="0 0 2567.5 1606.1" style="enable-background:new 0 0 2567.5 1606.1;" xml:space="preserve">
<style type="text/css">
	.st0{fill:#F9D7D7;}
	.st1{fill:#C48080;}
	.st2{fill:#875959;}
	.st3{fill:#F4BD82;}
	.st4{fill:#F4B5B5;}
	.st5{fill:#9D9DFC;}
	.st6{fill:#F74F4F;}
</style>
<title>accueil</title>
<g id="fond">
	<rect x="6.7" y="5.3" class="st0" width="2560" height="1600"/>
	<rect y="1208.6" class="st1" width="2567.5" height="396.9"/>
</g>
<g id="Calque_3">
	<path class="st2" d="M110,1606.1c0,0-46-1440.4,6-1462.4s420.1,37.5,476.1-4.5s67.5-38.5,67.5-136.5c-56,0-93.6,0.9-115.6,2.9
		c-2,32,14,20.1-42,26.1s-410,20-414-4s2,0.7,2-23.3H0v1601.2C30,1605.6,90,1606.1,110,1606.1z"/>
</g>
<g id="fleurs">
	<path class="st3" d="M2242.3,1242.2c10-33.3,39.8-58.2,45.6-43.6s-12.6,47.5-12.6,57.2s21.3-10.7,30.1-17.5s24.2,0,21.3,8.7
		s-1,35.9-23.3,30.1s-15.5,16.5,1,15.5s33,18.4,16.5,28.1s-33,25.2-42.7,7.8s-9.7-36.8-15.5-33s-5.8,29.1-9.7,34.9
		s-24.2,6.8-34.9-6.8c-7.9-10-3.9-30.1,4.9-37.8s14.5-15.5-1.9-16.5s-37.8-8.7-27.1-22.3s12.6-33.9,28.1-22.3
		S2239.4,1251.9,2242.3,1242.2z"/>
	<path class="st4" d="M364.7,1108.5c27.2,18.1,5,73.7,20,70s37.5-48.7,48.7-46.2s23.7,17.5,21.2,31.2s-13.8,43.7-35,37.5
		s-23.7,21.2-10,22.5s41.2,7.5,43.7,17.5s-13.7,56.2-36.2,41.2s-23.7-57.5-32.5-60s-20,35-12.5,45s15,33.7-2.5,28.7
		s-56.2-10-48.7-26.2s3.8-32.5,21.2-43.7s0-22.5-10-20s-48.7-3.8-50-13.7s7.5-30,25-31.2s25,8.7,36.2,12.5s-20-26.2-23.7-38.7
		s-5-22.5,10-26.2S353.5,1101,364.7,1108.5z"/>
	<path class="st5" d="M1925.1,1276.7c12.6,21.6,18-72.1,49.9-45.7c22.7,18.7-18,44.3-9.7,52.7s45.3-27.5,52.7-13.9
		c9.7,18-30.5,31.9-38.8,44.3s43-9.7,40.2,12.5s-27.7,20.8-43,11.1s12.6,34.9,2.8,40.2c-20.8,11.1-34.7-2.8-36-31.9
		s-13.9,22.2-23.6,33.3s-26.3-25-1.4-54.1s-33.3,23.6-45.7,8.3s-27.7-59.6,5.6-48.5s30.5,23.6,33.3,11.1s-69.3-40.2-38.8-51.3
		S1915.4,1260,1925.1,1276.7z"/>
	<path class="st4" d="M2055,1058.6c19.5-13,38-40,48-26c10,14,20,52,32,46s40-28,42-8s-20,50,0,48s56,6,40,18s-60,24-38,34
		s50,34,30,38s-48,20-40,30s16,48-4,38s-48,6-44,18s-26,38-32,20s-22-50-32-30s-46,24-44,2s-8-50-26-42s-52-18-30-26s24-22,2-32
		s-30-22-10-28s24-10,20-30s-10-32,10-30s22,12,24-10s12-52,26-40S2043,1066.6,2055,1058.6z"/>
	<path class="st6" d="M2393.1,1033.1c36,24,6.6,97.5,26.4,92.6s49.6-64.4,64.4-61.2s31.4,23.1,28.1,41.3s-18.2,57.8-46.3,49.6
		s-31.4,28.1-13.2,29.8s54.5,9.9,57.9,23.1s-18.2,74.4-47.9,54.5s-31.4-76-43-79.3s-26.4,46.3-16.5,59.5s19.8,44.6-3.3,38
		s-74.4-13.2-64.5-34.7s5-43,28.1-57.8s0-29.8-13.2-26.4s-64.4-5-66.1-18.2s9.9-39.7,33.1-41.3s33,11.6,47.9,16.5
		s-26.4-34.7-31.4-51.2s-6.6-29.8,13.2-34.7S2378.3,1023.2,2393.1,1033.1z"/>
	<path class="st5" d="M255.2,1212.9c6.5-4.3,12.7-13.4,16.1-8.7s6.7,17.4,10.7,15.4s13.4-9.4,14.1-2.7s-6.7,16.7,0,16.1
		s18.8,2,13.4,6s-20.1,8-12.7,11.4s16.7,11.4,10,12.7s-16.1,6.7-13.4,10s5.4,16.1-1.3,12.7s-16.1,2-14.7,6s-8.7,12.7-10.7,6.7
		s-7.4-16.7-10.7-10s-15.4,8-14.7,0.7s-2.7-16.7-8.7-14.1s-17.4-6-10-8.7s8-7.4,0.7-10.7s-10.1-7.4-3.4-9.4s8-3.3,6.7-10
		s-3.4-10.7,3.3-10s7.4,4,8-3.3s4-17.4,8.7-13.4S251.2,1215.6,255.2,1212.9z"/>
	<path class="st5" d="M1030.7,1438.9c12.6,21.6,18-72.1,49.9-45.7c22.7,18.7-18,44.3-9.7,52.7s45.3-27.5,52.7-13.9
		c9.7,18-30.5,31.9-38.8,44.4s43-9.7,40.2,12.5s-27.7,20.8-43,11.1s12.6,34.9,2.8,40.2c-20.8,11.1-34.7-2.8-36-31.9
		s-13.9,22.2-23.6,33.3c-9.7,11.1-26.3-25-1.4-54s-33.3,23.6-45.7,8.3s-27.7-59.6,5.5-48.5s30.5,23.6,33.3,11.1
		s-69.3-40.2-38.8-51.3S1021,1422.3,1030.7,1438.9z"/>
	<path class="st6" d="M1596.7,1337c19,12.7,3.5,51.5,14,48.9s26.2-34.1,34-32.3s16.6,12.2,14.8,21.8s-9.6,30.6-24.4,26.2
		s-16.6,14.8-7,15.7s28.8,5.2,30.6,12.2s-9.6,39.3-25.3,28.8s-16.6-40.2-22.7-41.9s-14,24.4-8.7,31.4s10.5,23.6-1.7,20.1
		s-39.3-7-34.1-18.3s2.6-22.7,14.8-30.6s0-15.7-7-14s-34.1-2.6-34.9-9.6s5.2-21,17.5-21.8s17.5,6.1,25.3,8.7s-14-18.3-16.6-27.1
		s-3.5-15.7,7-18.3S1588.8,1331.8,1596.7,1337z"/>
	<path class="st3" d="M671.2,1181.2c10-33.3,39.8-58.2,45.6-43.6s-12.6,47.5-12.6,57.2s21.3-10.7,30.1-17.4s24.2,0,21.3,8.7
		s-1,35.9-23.3,30.1s-15.5,16.5,1,15.5s33,18.4,16.5,28.1s-33,25.2-42.7,7.8s-9.7-36.8-15.5-33s-5.8,29.1-9.7,34.9
		s-24.2,6.8-34.9-6.8c-7.9-10-3.9-30,4.8-37.8s14.5-15.5-1.9-16.5s-37.8-8.7-27.2-22.3s12.6-33.9,28.1-22.3
		S668.3,1190.9,671.2,1181.2z"/>
	<path class="st6" d="M747.5,1228.9c9.5-6.3,18.6-19.6,23.5-12.7s9.8,25.4,15.7,22.5s19.6-13.7,20.5-3.9s-9.8,24.5,0,23.5
		s27.4,2.9,19.6,8.8s-29.4,11.7-18.6,16.6s24.5,16.6,14.7,18.6s-23.5,9.8-19.6,14.7s7.8,23.5-2,18.6s-23.5,2.9-21.5,8.8
		s-12.7,18.6-15.7,9.8s-10.8-24.5-15.7-14.7s-22.5,11.7-21.5,1s-3.9-24.5-12.7-20.6s-25.4-8.8-14.7-12.7s11.7-10.8,1-15.7
		s-14.7-10.8-4.9-13.7s11.7-4.9,9.8-14.7s-4.9-15.7,4.9-14.7s10.8,5.9,11.8-4.9s5.9-25.4,12.7-19.6S741.6,1232.8,747.5,1228.9z"/>
	<path class="st3" d="M1150,1516.6c4.5-3,8.8-9.3,11.1-6s4.6,12,7.4,10.7s9.3-6.5,9.7-1.8s-4.6,11.6,0,11.1s13,1.4,9.3,4.2
		s-13.9,5.6-8.8,7.9s11.6,7.9,7,8.8s-11.1,4.6-9.3,7s3.7,11.1-0.9,8.8s-11.1,1.4-10.2,4.2s-6,8.8-7.4,4.6s-5.1-11.6-7.4-6.9
		s-10.7,5.6-10.2,0.5s-1.9-11.6-6-9.7s-12-4.2-6.9-6s5.6-5.1,0.5-7.4s-7-5.1-2.3-6.5s5.6-2.3,4.6-7s-2.3-7.4,2.3-6.9
		s5.1,2.8,5.6-2.3s2.8-12,6-9.3S1147.3,1518.5,1150,1516.6z"/>
	<path class="st3" d="M1210,1428.6c4.5-3,8.8-9.3,11.1-6s4.6,12,7.4,10.7s9.3-6.5,9.7-1.8s-4.6,11.6,0,11.1s13,1.4,9.3,4.2
		s-13.9,5.6-8.8,7.9s11.6,7.9,7,8.8s-11.1,4.6-9.3,7s3.7,11.1-0.9,8.8s-11.1,1.4-10.2,4.2s-6,8.8-7.4,4.6s-5.1-11.6-7.4-6.9
		s-10.7,5.6-10.2,0.5s-1.9-11.6-6-9.7s-12-4.2-6.9-6s5.6-5.1,0.5-7.4s-7-5.1-2.3-6.5s5.6-2.3,4.6-7s-2.3-7.4,2.3-6.9
		s5.1,2.8,5.6-2.3s2.8-12,6-9.3S1207.3,1430.5,1210,1428.6z"/>
	<path class="st3" d="M1691.6,1369.9c4.5-3,8.8-9.3,11.1-6s4.6,12,7.4,10.7s9.3-6.5,9.7-1.9s-4.6,11.6,0,11.1s13,1.4,9.3,4.2
		s-13.9,5.6-8.8,7.9s11.6,7.9,6.9,8.8s-11.1,4.6-9.3,7s3.7,11.1-0.9,8.8s-11.1,1.4-10.2,4.2s-6,8.8-7.4,4.6s-5.1-11.6-7.4-6.9
		s-10.7,5.6-10.2,0.5s-1.8-11.6-6-9.7s-12-4.2-6.9-6s5.6-5.1,0.5-7.4s-6.9-5.1-2.3-6.5s5.6-2.3,4.6-6.9s-2.3-7.4,2.3-7
		s5.1,2.8,5.6-2.3s2.8-12,6-9.3S1688.8,1371.7,1691.6,1369.9z"/>
	<path class="st3" d="M314.5,1302.9c4.5-3,8.8-9.3,11.1-6s4.6,12,7.4,10.7s9.3-6.5,9.7-1.9s-4.6,11.6,0,11.1s13,1.4,9.3,4.2
		s-13.9,5.6-8.8,7.9s11.6,7.9,6.9,8.8s-11.1,4.6-9.3,7s3.7,11.1-0.9,8.8s-11.1,1.4-10.2,4.2s-6,8.8-7.4,4.6s-5.1-11.6-7.4-7
		s-10.6,5.6-10.2,0.5s-1.9-11.6-6-9.7s-12-4.2-7-6s5.6-5.1,0.5-7.4s-7-5.1-2.3-6.5s5.6-2.3,4.6-7s-2.3-7.4,2.3-6.9s5.1,2.8,5.6-2.3
		s2.8-12,6-9.3S311.7,1304.8,314.5,1302.9z"/>
</g>
</svg>
