<svg id="fleurs" xmlns="http://www.w3.org/2000/svg" viewBox="0 0 2567.46 1606.07"><defs><style>.cls-1{fill:#7cd1f2;}.cls-2{fill:#008d6a;}.cls-3{fill:#725238;}.cls-4{fill:#c4b17c;}.cls-5{fill:#f4d4ae;}.cls-6{fill:#f4b5b5;}.cls-7{fill:#9d9dfc;}.cls-8{fill:#f74f4f;}</style></defs><title>accueil</title><rect class="cls-1" x="6.69" y="5.31" width="2560" height="1600"/><rect class="cls-2" y="1208.63" width="2567.46" height="396.94"/><path class="cls-3" d="M105,1599.5S59,159.14,111,137.14s420.13,37.48,476.13-4.52S654.62,94.13,654.62-3.87C598.62-3.87,561-3,539-1c-2,32,14,20.14-42,26.14s-410,20-414-4,2,.69,2-23.31H-5V1599C25,1599,85,1599.5,105,1599.5Z" transform="translate(5 6.57)"/><path class="cls-4" d="M242.68-2.86c-14.47,2.9-30,36-10,51.34S190,36.48,194,75.81s14.67,26-9.33,30-28,32.67-17.33,48-28.67,1.33-31.34,17.33-18,51.34,28.67,52-24.67,8.67-3.33,32,25.33,29.34,42,24-16.67,10.67-12.67,23.34.67,31.33,22,32,16-2,12,15.33.67,37.33,18,39.33,156,6,171.33-3.33,22.67-39.33,8-46.67,7.34-3.33,17.34-5.33,33.33-34,21.33-46,9.33,0,18.67-8.67,29.33-46,8.66-53.33,26,2,32-13.33,8-42-4-46.67-35.33,4-32.66-6,20-22.67,10-38-38-5.33-44-9.33,22.66-20,14-38.67S438.68,47.14,422,50.48s14.67-14.67,12-27.34-17.33-24-20.66-28S252.68-4.86,242.68-2.86Z" transform="translate(5 6.57)"/><path class="cls-5" d="M2237.26,1235.61c10-33.29,39.75-58.18,45.57-43.63s-12.61,47.51-12.61,57.21,21.34-10.67,30.06-17.46,24.24,0,21.33,8.73-1,35.87-23.27,30.06-15.51,16.48,1,15.51,33,18.42,16.49,28.12-33,25.21-42.67,7.76-9.69-36.85-15.51-33-5.82,29.09-9.7,34.91-24.24,6.78-34.9-6.79c-7.88-10-3.88-30.06,4.85-37.82s14.54-15.51-1.94-16.48-37.82-8.73-27.15-22.3,12.6-33.94,28.12-22.3S2234.35,1245.31,2237.26,1235.61Z" transform="translate(5 6.57)"/><path class="cls-6" d="M359.74,1101.9c27.21,18.14,5,73.7,20,70s37.48-48.72,48.72-46.23,23.73,17.49,21.24,31.24-13.75,43.72-35,37.47-23.74,21.24-10,22.49,41.23,7.49,43.73,17.49-13.74,56.21-36.23,41.22-23.74-57.46-32.48-60-20,35-12.49,45,15,33.73-2.5,28.73-56.22-10-48.72-26.23,3.75-32.48,21.23-43.72,0-22.49-10-20-48.72-3.75-50-13.74,7.5-30,25-31.23,25,8.74,36.22,12.49-20-26.23-23.73-38.73-5-22.48,10-26.23S348.5,1094.4,359.74,1101.9Z" transform="translate(5 6.57)"/><path class="cls-7" d="M1920.11,1270.09c12.59,21.58,18-72.07,49.9-45.74,22.67,18.73-18,44.35-9.7,52.67s45.32-27.5,52.67-13.86c9.7,18-30.49,31.88-38.81,44.35s43-9.7,40.19,12.48-27.72,20.79-43,11.09,12.63,34.93,2.77,40.19c-20.79,11.09-34.65-2.77-36-31.88s-13.86,22.18-23.56,33.27-26.34-25-1.39-54.06-33.26,23.56-45.74,8.32-27.72-59.6,5.55-48.51,30.49,23.56,33.26,11.08-69.3-40.19-38.81-51.28S1910.41,1253.46,1920.11,1270.09Z" transform="translate(5 6.57)"/><path class="cls-6" d="M2050,1052c19.48-13,38-40,48-26s20,52,32,46,40-28,42-8-20,50,0,48,56,6,40,18-60,24-38,34,50,34,30,38-48,20-40,30,16,48-4,38-48,6-44,18-26,38-32,20-22-50-32-30-46,24-44,2-8-50-26-42-52-18-30-26,24-22,2-32-30-22-10-28,24-10,20-30-10-32,10-30,22,12,24-10,12-52,26-40S2038,1060,2050,1052Z" transform="translate(5 6.57)"/><path class="cls-8" d="M2388.15,1026.52c36,24,6.62,97.51,26.45,92.55s49.58-64.45,64.45-61.15,31.41,23.14,28.1,41.32-18.18,57.84-46.28,49.58-31.4,28.1-13.22,29.75,54.54,9.92,57.85,23.14-18.18,74.37-47.93,54.54-31.4-76-43-79.33-26.45,46.27-16.53,59.5,19.83,44.62-3.3,38-74.38-13.22-64.46-34.71,5-43,28.1-57.84,0-29.75-13.23-26.45-64.45-5-66.11-18.18,9.92-39.66,33.06-41.32,33,11.57,47.93,16.53-26.45-34.71-31.4-51.23-6.61-29.75,13.22-34.71S2373.28,1016.6,2388.15,1026.52Z" transform="translate(5 6.57)"/><path class="cls-7" d="M250.22,1206.3c6.52-4.34,12.72-13.39,16.07-8.7S273,1215,277,1213s13.39-9.37,14.06-2.68-6.69,16.74,0,16.07,18.75,2,13.39,6-20.08,8-12.72,11.38,16.74,11.38,10,12.72-16.07,6.7-13.39,10,5.36,16.06-1.34,12.72-16.07,2-14.73,6-8.7,12.72-10.71,6.7-7.37-16.74-10.71-10-15.4,8-14.73.66-2.68-16.73-8.71-14.06-17.41-6-10-8.7,8-7.37.67-10.71-10.05-7.37-3.35-9.38,8-3.35,6.7-10-3.35-10.71,3.34-10,7.37,4,8-3.35,4-17.41,8.7-13.39S246.2,1209,250.22,1206.3Z" transform="translate(5 6.57)"/><path class="cls-7" d="M1025.72,1432.38c12.59,21.58,18-72.08,49.9-45.74,22.67,18.72-18,44.35-9.7,52.67s45.32-27.51,52.67-13.87c9.7,18-30.49,31.88-38.81,44.36s43-9.7,40.19,12.47-27.72,20.79-43,11.09,12.63,34.94,2.77,40.2c-20.79,11.09-34.65-2.77-36-31.88s-13.86,22.17-23.56,33.26-26.34-25-1.39-54-33.26,23.56-45.74,8.31-27.72-59.6,5.55-48.51,30.49,23.56,33.26,11.09-69.3-40.2-38.81-51.28S1016,1415.74,1025.72,1432.38Z" transform="translate(5 6.57)"/><path class="cls-8" d="M1591.69,1330.47c19,12.68,3.5,51.52,14,48.9s26.19-34.06,34-32.31,16.59,12.23,14.85,21.83-9.61,30.56-24.45,26.2-16.59,14.84-7,15.72,28.82,5.24,30.56,12.22-9.6,39.3-25.32,28.82-16.59-40.17-22.7-41.92-14,24.45-8.74,31.44,10.48,23.58-1.74,20.08-39.3-7-34.06-18.33,2.62-22.71,14.85-30.57,0-15.72-7-14-34.06-2.62-34.93-9.6,5.24-21,17.46-21.84,17.47,6.12,25.33,8.74-14-18.34-16.59-27.07-3.5-15.72,7-18.34S1583.83,1325.23,1591.69,1330.47Z" transform="translate(5 6.57)"/><path class="cls-5" d="M666.17,1174.6c10-33.3,39.76-58.18,45.57-43.64s-12.6,47.51-12.6,57.21,21.33-10.67,30.06-17.45,24.24,0,21.33,8.72-1,35.88-23.27,30.06-15.52,16.49,1,15.52,33,18.42,16.48,28.11-33,25.21-42.66,7.76-9.7-36.84-15.52-33-5.81,29.09-9.69,34.91-24.24,6.79-34.91-6.79c-7.88-10-3.88-30,4.85-37.81s14.54-15.52-1.94-16.49-37.82-8.72-27.15-22.3,12.61-33.93,28.12-22.3S663.26,1184.29,666.17,1174.6Z" transform="translate(5 6.57)"/><path class="cls-8" d="M742.47,1222.36c9.53-6.35,18.59-19.57,23.48-12.72s9.79,25.45,15.66,22.51,19.57-13.7,20.55-3.91-9.79,24.46,0,23.48,27.4,2.94,19.57,8.81-29.36,11.74-18.59,16.63,24.46,16.64,14.68,18.6-23.49,9.78-19.57,14.67,7.82,23.49-2,18.6-23.49,2.93-21.53,8.8-12.72,18.6-15.66,9.79-10.76-24.46-15.65-14.68-22.51,11.74-21.53,1-3.92-24.46-12.72-20.55-25.44-8.81-14.68-12.72,11.74-10.77,1-15.66-14.68-10.76-4.89-13.7,11.74-4.89,9.78-14.68-4.89-15.65,4.89-14.67,10.77,5.87,11.75-4.9,5.87-25.44,12.72-19.57S736.6,1226.28,742.47,1222.36Z" transform="translate(5 6.57)"/><path class="cls-5" d="M1145,1510.05c4.51-3,8.8-9.26,11.12-6s4.63,12,7.41,10.65,9.26-6.48,9.73-1.85-4.64,11.58,0,11.12,13,1.39,9.26,4.17-13.9,5.55-8.8,7.87,11.58,7.87,7,8.8-11.12,4.63-9.27,7,3.71,11.11-.92,8.8-11.12,1.39-10.19,4.17-6,8.8-7.41,4.63-5.1-11.58-7.41-6.95-10.66,5.56-10.19.46-1.86-11.58-6-9.72-12-4.17-6.94-6,5.56-5.1.46-7.41-7-5.1-2.32-6.49,5.56-2.31,4.64-7-2.32-7.41,2.31-6.94,5.1,2.77,5.56-2.32,2.78-12,6-9.26S1142.26,1511.91,1145,1510.05Z" transform="translate(5 6.57)"/><path class="cls-5" d="M1205,1422.05c4.51-3,8.8-9.26,11.12-6s4.63,12,7.41,10.65,9.26-6.48,9.73-1.85-4.64,11.58,0,11.12,13,1.39,9.26,4.17-13.9,5.55-8.8,7.87,11.58,7.87,7,8.8-11.12,4.63-9.27,7,3.71,11.11-.92,8.8-11.12,1.39-10.19,4.17-6,8.8-7.41,4.63-5.1-11.58-7.41-6.95-10.66,5.56-10.19.46-1.86-11.58-6-9.72-12-4.17-6.94-6,5.56-5.1.46-7.41-7-5.1-2.32-6.49,5.56-2.31,4.64-7-2.32-7.41,2.31-6.94,5.1,2.77,5.56-2.32,2.78-12,6-9.26S1202.26,1423.91,1205,1422.05Z" transform="translate(5 6.57)"/><path class="cls-5" d="M1686.6,1363.31c4.51-3,8.8-9.26,11.12-6s4.63,12,7.41,10.66,9.26-6.49,9.72-1.86-4.63,11.58,0,11.12,13,1.39,9.27,4.17-13.9,5.56-8.8,7.87,11.58,7.88,6.94,8.8-11.11,4.63-9.26,7,3.71,11.12-.93,8.8-11.11,1.39-10.19,4.17-6,8.8-7.41,4.63-5.09-11.58-7.41-6.95-10.65,5.56-10.19.47-1.85-11.58-6-9.73-12-4.17-6.95-6,5.56-5.1.47-7.41-6.95-5.1-2.32-6.49,5.56-2.31,4.63-6.94-2.31-7.42,2.32-7,5.09,2.78,5.56-2.32,2.78-12,6-9.26S1683.82,1365.17,1686.6,1363.31Z" transform="translate(5 6.57)"/><path class="cls-5" d="M309.5,1296.38c4.51-3,8.8-9.26,11.12-6s4.63,12,7.41,10.66,9.26-6.49,9.72-1.86-4.63,11.58,0,11.12,13,1.39,9.27,4.17-13.9,5.56-8.8,7.87,11.58,7.88,6.94,8.8-11.11,4.63-9.26,7,3.71,11.12-.93,8.8-11.11,1.39-10.19,4.17-6,8.8-7.41,4.63-5.09-11.58-7.41-7-10.65,5.56-10.19.47-1.85-11.58-6-9.73-12-4.17-6.95-6,5.56-5.1.47-7.41-6.95-5.1-2.32-6.49,5.56-2.31,4.63-7-2.31-7.41,2.32-6.94,5.09,2.78,5.56-2.32,2.78-12,6-9.26S306.72,1298.24,309.5,1296.38Z" transform="translate(5 6.57)"/></svg>