<svg id="Calque_3" data-name="Calque 3" xmlns="http://www.w3.org/2000/svg" viewBox="0 0 570.7 405.24"><defs><style>.cls-1{fill:#725238;}.cls-2{fill:#f4ed06;}</style></defs><title>abeille</title><path class="cls-1" d="M409.06,387c3.64,4,24.32,24.16,24.91,28s1.91,8.41,3.86,7,.6-4.89,2.93-6.31,6.55-2.74,5.54-5.44-7.56-.33-10.45-3.48-19.06-23.17-22.42-24.45S406.53,384.22,409.06,387Z" transform="translate(-121.19 -74.49)"/><path class="cls-1" d="M567.27,297.86c2.62-5.05,14.3-17.73,19.55-18s28.36-7,36.68-9.11,60-11.48,66.74-6.31-9,3.42-12.92,4.38-38.51,7.73-41.91,8.53-40.87,6.51-45.13,9S574.36,299,572,301.14,565.36,301.55,567.27,297.86Z" transform="translate(-121.19 -74.49)"/><path class="cls-2" d="M345.63,247.45C312.91,234.36,216.51,226.26,162,284.77s-53.46,155.34,2,154.33c36.31-23.2,153.32-88.77,191.65-85.74s60.53-94.82,31.27-96.84S360.76,253.5,345.63,247.45Z" transform="translate(-121.19 -74.49)"/><path class="cls-2" d="M503.06,354.9c-9.13-11.33-32.93-43.8-34-53.95-1.58-15.59,5.09-24.06,17.06-25.24,11.76-1.16,22.54,1.45,37.16,3.92s71.73,16.15,86.69,42.08-6.89,39.6-17.6,47.12-22.81,17.72-33.72,23.42S511.7,365.63,503.06,354.9Z" transform="translate(-121.19 -74.49)"/><ellipse class="cls-1" cx="541.19" cy="330.98" rx="17.9" ry="37.57" transform="translate(-63.11 667.63) rotate(-71.85)"/><path class="cls-1" d="M600.94,356.21c12.5-.78,36.74,9.67,43.16,10.43s28.49,19,33.74,30.27c.57-15.9-22.45-38.9-34.24-42.45s-33.28-14.7-37.41-10S596.54,356.48,600.94,356.21Z" transform="translate(-121.19 -74.49)"/><path class="cls-1" d="M553.85,290.05c-1.59-9.55-10.54-43-8.63-46.65S566,231.18,571,230.75s55.85-13.24,61-10.12,6.15,7.87.08,6.43-14.39.64-19.49,2.26-52,13.12-55.85,13.23-3.73.63-2.63,5.89,4.28,20.53,5.72,26-.18,12.69,1,15.41S554.47,293.78,553.85,290.05Z" transform="translate(-121.19 -74.49)"/><path class="cls-1" d="M228.62,245.43a2.9,2.9,0,0,0-1.32,2c-3.43,12.56,18.52,75.7,25.53,82.25C260.39,336.72,272,369,278.55,369s12.1-18.16,7.56-27.24-7.06-17.65-15.63-33.79-7.57-30.77-11.1-48.42-.5-21.18-6.55-19.67S231.64,243.92,228.62,245.43Z" transform="translate(-121.19 -74.49)"/><path class="cls-1" d="M169.1,277.2c5.55,17.66,33.79,62,36.82,67.59s19.67,27.74,27.74,27.23,28.75-13.62,16.14-22.69S218.53,328.14,212,321.59s-14.62-28.25-14.62-37.83-2.53-20.68-3.53-24.71C187.76,264.59,173.14,273.17,169.1,277.2Z" transform="translate(-121.19 -74.49)"/><path class="cls-1" d="M146.41,303.43c3,8.07,10.59,28.24,16.14,30.76s31.27,15.64,36.31,17.66S216,362.94,220,367s11.1,27.74-11.6,19.16S163.05,364,159.52,357.4s-29.25-23.71-24.71-32.79S142.88,308,146.41,303.43Z" transform="translate(-121.19 -74.49)"/><path class="cls-1" d="M124.22,357.4c3.53,6.55,15.63,19.67,21.18,19.16s31.27,3,38.83,5.55,24.72,14.63,12.11,17.65-50.44-3-59.52-7.06-12.6-7.06-15.63-11.1C121.69,372.53,122.7,362.44,124.22,357.4Z" transform="translate(-121.19 -74.49)"/><path class="cls-1" d="M122.2,398.25c7.06,2,32.28,8.57,40.35,7.56s16.64,2.53,16.64,7.06-.25,13.62-3.78,18.67c-7.32,4.79-9.59,6.8-11.35,7.56-5,0-19.67-2-25.47-8.83S130.27,423.47,122.2,398.25Z" transform="translate(-121.19 -74.49)"/><path class="cls-1" d="M271.49,237.86c1.51,14.12,8.57,52.46,14.62,60s10.59,34.3,12.61,40.35,8.07,24.71,17.15,22.7,53.46-3,58.51-8.07,45.39-60,33.79-79.19-44.39-18.15-50.44-21.18-21.18-13.11-32.28-13.62S278.55,236.35,271.49,237.86Z" transform="translate(-121.19 -74.49)"/><path class="cls-2" d="M506,256.52c-5-18-25.72-31-48.42-31.77s-73.38-6.05-87,15.13-37.07,59.77-25.72,89.27,36.31,64.31,55.23,62.79,75.65-24.21,85.49-36.31S509.8,270.14,506,256.52Z" transform="translate(-121.19 -74.49)"/><path class="cls-1" d="M375.94,343.88c-15.51,5.77-23.37,23.36-32.61,35.64S320.49,409.24,323,416.08s26.88,42.92,29.36,49.76,3.67,11.54,7.59,6.66,3.63-6.9,7.12-6.83,8-3.89,3.55-5-12.19,2.08-13.76-1-18.08-37.53-18.29-41.47,37-54,38.16-57.26S379.94,342.39,375.94,343.88Z" transform="translate(-121.19 -74.49)"/><path class="cls-1" d="M399.76,362c6.49-.52,6.39,5.09,2,11.8s-18.15,32.43-15.95,39.31,9.6,39.19,12.06,42.85,3.82,10.57,6.38,11.35,6.91,12.86,2.6,9.58-7.41-5.57-7.71-4,2.84,5.52.83,6.25-6.2,2.52-5.61-7.65-23.28-51.88-24.89-55.56,9.55-31,15.77-39.82S396.72,362.29,399.76,362Z" transform="translate(-121.19 -74.49)"/><path class="cls-1" d="M447,365.47c6.63-4.56,9.84-4.17,10.22,0s.37,7.94,7.56,14S489,391.57,490.5,396.1s-14.37,42.75-16.64,48,9.46,7.57,7.19,13.62-15.51-1.89-16.27-7.18,15.51-40.86,11.35-44.64-26.48-6.43-30.26-15.13S441,369.63,447,365.47Z" transform="translate(-121.19 -74.49)"/><path class="cls-1" d="M441.56,269.28c-2.44-3.92-5.13-8.34-3.48-13.09,1.27-3.65,4.24-6.48,6.51-9.51a20.65,20.65,0,0,0,2-22.3l-2.35,1.82c6.45,7.21,10.17,18,5.56,27.15-1.93,3.82-4.76,7.59-4.24,12.1s4.27,7.57,5.83,11.67c.68,1.78,3.59,1,2.9-.8-1.59-4.15-6.15-7.9-5.78-12.59.22-2.84,2-5.37,3.32-7.81a24.07,24.07,0,0,0,2.5-6.37c2-9.2-1.88-18.66-8-25.47-1.18-1.32-3.12.36-2.36,1.81a17.39,17.39,0,0,1,1.09,13.73c-1.34,3.89-4.27,6.83-6.7,10-2.12,2.82-3.89,6-3.89,9.62,0,4.23,2.26,8,4.43,11.5,1,1.64,3.62.13,2.59-1.51Z" transform="translate(-121.19 -74.49)"/><path class="cls-1" d="M446.31,227.17c7.7,3.89,17.42,10.25,15.42,20.34-.42,2.14-1.19,4.18-1.5,6.35a28.33,28.33,0,0,0,0,6.7c.46,4.95,1.1,9.89,1.66,14.83.21,1.9,3.21,1.92,3,0-.61-5.41-1.41-10.84-1.78-16.27a24.55,24.55,0,0,1,.89-8.27,20.16,20.16,0,0,0,1-7.1c-.85-9.53-9.33-15.24-17.12-19.17-1.72-.87-3.24,1.72-1.51,2.59Z" transform="translate(-121.19 -74.49)"/><path class="cls-1" d="M443.77,242a19.93,19.93,0,0,1-5.89-12.9c-.3-5.27,1.64-10.35,3.62-15.13,3.53-8.53,7.53-17.77,3.43-26.85L442.57,189c3.27,2.71,6.36,5.48,6.54,10,.16,4-1.55,7.72-2.89,11.36-2.15,5.83-3.48,12.83,1.34,17.75,1.35,1.38,3.47-.74,2.12-2.12-5.9-6,.05-14.92,1.71-21.41a16.23,16.23,0,0,0-.21-10.15c-1.28-3.17-3.91-5.45-6.49-7.58a1.5,1.5,0,0,0-2.35,1.81c4.6,10.18-2.89,20.85-5.91,30.32-2.87,9-1.57,18.33,5.22,25.18a1.5,1.5,0,0,0,2.12-2.13Z" transform="translate(-121.19 -74.49)"/><path class="cls-1" d="M444.37,189.74c6.09,5.92,13.81,12.69,11.19,22.12-1,3.65-2.23,7-1.89,10.83a19.46,19.46,0,0,0,3.72,9.83c1.13,1.54,3.74,0,2.59-1.51a16.55,16.55,0,0,1-3.22-12.25c.59-3.93,2.63-7.46,2.38-11.54-.5-8.32-7.07-14.18-12.65-19.6-1.38-1.35-3.5.77-2.12,2.12Z" transform="translate(-121.19 -74.49)"/><path class="cls-1" d="M445.51,190.21c9.39.9,16.12,9.12,17.64,18A33.71,33.71,0,0,1,462,223.37c-1.4,4.74-3.27,9.22-2.28,14.24.37,1.89,3.26,1.09,2.89-.8-1.17-6,2.52-11.93,3.44-17.74A32.84,32.84,0,0,0,465,203.26c-3-8.53-10.32-15.18-19.45-16-1.92-.18-1.91,2.82,0,3Z" transform="translate(-121.19 -74.49)"/><path class="cls-1" d="M438.32,249.44c-5.48-2.06-10.39-4.53-12.2-10.51-1.4-4.61-1.28-9.54-2-14.27s-2.37-9-5.92-12.34c-4.17-3.86-9.62-6.44-14.48-9.3l-.35,2.74c4.08-.94,8.7-1,12.35,1.38,3.44,2.19,5.1,6.08,6.75,9.63,2.81,6.06,7.25,12.91,14.91,11.81,1.9-.28,1.09-3.17-.8-2.89-8.77,1.26-11.25-11.73-15.06-17-4.43-6.16-11.9-7.44-19-5.81a1.51,1.51,0,0,0-.36,2.74c5,2.93,11.06,5.58,15,9.93,3.73,4.17,4.11,9.88,4.6,15.19.41,4.54.85,9.34,3.32,13.3,2.81,4.49,7.65,6.51,12.41,8.3,1.81.68,2.59-2.22.79-2.89Z" transform="translate(-121.19 -74.49)"/><path class="cls-1" d="M406.34,206.49c3.47-1.23,7.1-2.57,10.84-2.57a14.25,14.25,0,0,1,8.61,3.14c4.22,3.07,7.85,7.16,13.23,8.09,1.89.33,2.7-2.56.8-2.89-6-1-9.72-6.43-14.8-9.29-6.29-3.53-13.11-1.64-19.48.63-1.8.64-1,3.54.8,2.89Z" transform="translate(-121.19 -74.49)"/><path class="cls-1" d="M405.55,205.75c2.79-1.51,5.57-3,8.36-4.54s5.7-3,9-2.78c2.86.23,5.61,1.55,8.23,2.62l9,3.67c1.78.73,2.56-2.17.79-2.89l-9.89-4c-2.88-1.17-5.85-2.38-9-2.4a17.69,17.69,0,0,0-8.12,2.4c-3.33,1.72-6.6,3.57-9.89,5.36-1.7.92-.19,3.51,1.51,2.59Z" transform="translate(-121.19 -74.49)"/><path class="cls-1" d="M438.24,265.7c-4.23-3-9.43-2.25-14.18-1.17-6.25,1.42-12.51,3-18.65.22-5-2.26-8.92-6.5-14.08-8.36-4.08-1.47-9.49-.16-10.41,4.64l2.95.39a8.82,8.82,0,0,1,9.21-9c5,0,9.43,2.76,13.88,4.71a27.7,27.7,0,0,0,13,2.54c5.18-.31,10.19-1.81,15.12-3.33,1.84-.57,1.05-3.47-.8-2.89-5.81,1.79-11.86,3.68-18,3.2-5.83-.46-10.66-3.81-16-5.78-4.23-1.57-9.16-2.21-13.3,0a11.76,11.76,0,0,0-6.09,10.61c0,1.64,2.61,2.12,2.94.4,1.28-6.68,9.9-.9,12.78,1.06,3.82,2.6,7.75,5.31,12.39,6.13s9.42,0,14-1.14,9.63-2.46,13.74.43c1.59,1.11,3.09-1.49,1.52-2.6Z" transform="translate(-121.19 -74.49)"/><path class="cls-1" d="M383.74,259.38A11.18,11.18,0,0,1,387.05,248c4.17-3.65,10.25-2.86,15.25-1.86,7.64,1.52,16.63,3.82,23-2.19,1.41-1.33-.71-3.45-2.12-2.12-7.93,7.49-20.55-.37-29.83.58-8.75.89-14.93,9.07-12.49,17.74a1.5,1.5,0,0,0,2.89-.79Z" transform="translate(-121.19 -74.49)"/><path class="cls-1" d="M383.55,259.7c-1.33-9.38-1.49-25.25,11-26.58,5.37-.57,10.16,1.72,15.18,3.12,4.1,1.15,8.51,1.1,11.73-2,1.39-1.35-.73-3.47-2.12-2.13-4.57,4.4-11.82-.05-16.84-1.26-4.85-1.17-10.24-1.29-14.66,1.34-9,5.38-8.44,19.39-7.18,28.31.27,1.9,3.16,1.09,2.9-.8Z" transform="translate(-121.19 -74.49)"/><path class="cls-1" d="M392.08,230.27c-5.92-4.65-3.78-13.14-4.92-19.64a21.8,21.8,0,0,0-9.47-14.2l-1.16,2.75a20.45,20.45,0,0,1,13.24,16.72c.47,3.73.8,7.25,2.34,10.73a25.4,25.4,0,0,0,6.34,8.64c1.44,1.28,3.56-.83,2.12-2.12a22.53,22.53,0,0,1-6.79-10.69c-1.14-4.05-.82-8.32-2.31-12.29a23.62,23.62,0,0,0-14.14-13.89c-1.68-.6-2.49,1.84-1.15,2.74,6.12,4.13,8.26,10.42,8.47,17.53.16,5.67.46,12,5.31,15.84,1.51,1.18,3.64-.93,2.12-2.12Z" transform="translate(-121.19 -74.49)"/><path class="cls-1" d="M376.69,197.25c4.08,3,9.5,2.07,13.11,6,3.29,3.61,5.48,8.42,7.93,12.61,4.68,8,9.86,15.93,17.9,20.91,1.64,1,3.15-1.57,1.51-2.59-8.48-5.26-13.49-14.07-18.36-22.48-2.25-3.87-4.36-8.27-7.66-11.38a13.22,13.22,0,0,0-5.55-3.1c-2.56-.74-5.16-.94-7.37-2.57-1.56-1.14-3.06,1.46-1.51,2.59Z" transform="translate(-121.19 -74.49)"/><path class="cls-1" d="M377.8,198.81c8.65-1.56,15.17,5.81,20.67,11.28,5,5,11,9.68,18.41,9.5,1.92-.05,1.93-3.05,0-3-8.88.22-14.72-7.31-20.55-12.86-5.26-5-11.77-9.18-19.33-7.82-1.9.34-1.09,3.24.8,2.9Z" transform="translate(-121.19 -74.49)"/><path class="cls-1" d="M394.8,202c-2.91-7.14,1.56-14.06,3.13-20.94s-.42-13.24-3.51-19.32l-2.05,2.06a21.92,21.92,0,0,1,6.67,8c1.78,3.7,2.09,7.65,2.42,11.68.57,6.81,2.43,12.75,8.3,16.77,1.59,1.1,3.09-1.5,1.51-2.59-7.23-5-6.2-13.09-7.5-20.74a24.83,24.83,0,0,0-9.88-15.75c-1.31-1-2.67.84-2.06,2.05a31.3,31.3,0,0,1,3.58,10.6c.42,3.67-.43,7.1-1.58,10.55-2,6-4.44,12.2-1.92,18.39.72,1.76,3.62,1,2.89-.8Z" transform="translate(-121.19 -74.49)"/><path class="cls-1" d="M395.57,166.15c4-.72,7.45,2.18,10,4.9a23.57,23.57,0,0,1,6,9.67c1.73,5.8,2.65,12.44,8.46,15.67,1.69.94,3.2-1.65,1.51-2.59-7-3.92-5.8-14.3-10.09-20.35-3.77-5.33-9.59-11.47-16.74-10.2-1.9.34-1.09,3.23.8,2.9Z" transform="translate(-121.19 -74.49)"/><path class="cls-1" d="M396.29,165.28c9.42-1.42,18.14,5.82,23.16,13.13,4.25,6.18,1.89,16.33,9.44,20.23,1.72.89,3.24-1.7,1.52-2.59-4.46-2.3-4.5-7.88-5.42-12.19s-3.33-7.83-6.29-11.09c-6-6.62-13.94-11.78-23.21-10.39-1.9.29-1.09,3.18.8,2.9Z" transform="translate(-121.19 -74.49)"/><path class="cls-1" d="M426.91,186.35c-2-8.14,4.07-15,7.17-22a30.17,30.17,0,0,0,1.55-20.27l-2.75,1.15a32.33,32.33,0,0,1,3.94,29.44c-1.53,4.13-2.42,7.88-1.6,12.31a19.48,19.48,0,0,0,3.95,8.66c.3.36.6.72.92,1.07s1.12,1.51,1.11.57l1.1-1.44-.22.08,1.46.38-.12-.13c-1.25-1.47-3.37.66-2.12,2.12l.12.14a1.46,1.46,0,0,0,1.46.38l.22-.08a1.55,1.55,0,0,0,1.1-1.45c0-1.67-2.59-3.25-3.5-4.61a17.3,17.3,0,0,1-2.59-6.49c-1-5.34,1.55-9.45,2.72-14.46a35.26,35.26,0,0,0-5.36-28,1.51,1.51,0,0,0-2.74,1.16c2.2,8.14.3,15.48-3.66,22.7-3.33,6.06-6.77,12.42-5.05,19.55.45,1.88,3.35,1.08,2.89-.8Z" transform="translate(-121.19 -74.49)"/><path class="cls-1" d="M434.62,147.9c2.12-.47,4.81,3,6,4.38a28.8,28.8,0,0,1,3.47,5.21,34,34,0,0,1,3.48,11c.59,4.14.05,8.08-.1,12.21-.14,3.63.6,7.37,3.53,9.78,1.48,1.21,3.61-.9,2.12-2.12-4.12-3.39-2.32-9.31-2.21-13.9a39.14,39.14,0,0,0-1.79-12.62,33.82,33.82,0,0,0-5.46-10.52c-2.25-2.91-5.75-7.21-9.86-6.31-1.88.42-1.09,3.31.8,2.9Z" transform="translate(-121.19 -74.49)"/><path class="cls-1" d="M436,146c9.67,4,14.78,13,16.54,22.93,1.55,8.78-.42,19,4.93,26.75,1.09,1.57,3.69.08,2.59-1.52-3.06-4.41-3.34-9.71-3.56-14.9a69.85,69.85,0,0,0-2-15.18c-2.54-9.51-8.58-17.16-17.75-21-1.78-.74-2.55,2.16-.79,2.89Z" transform="translate(-121.19 -74.49)"/><path class="cls-1" d="M406.56,163c-3.66-6.56-1.62-14.17-.47-21.12,1-6.29,1.47-12.86-1.91-18.54l-2.35,1.82c3.26,3.52,6.59,7.12,8.69,11.49,2.53,5.26,1.65,10.64,1.5,16.25-.25,9.9,5.47,17.35,11.66,24.48,1.27,1.46,3.38-.67,2.12-2.12-3.19-3.68-6.4-7.43-8.57-11.83-2.57-5.21-2.17-10.4-1.9-16a24.44,24.44,0,0,0-2.76-13.32c-2.24-4.12-5.46-7.63-8.62-11a1.51,1.51,0,0,0-2.36,1.82c3.86,6.48,1.92,14.12.74,21.07-1.06,6.29-1.58,12.82,1.64,18.59a1.5,1.5,0,0,0,2.59-1.52Z" transform="translate(-121.19 -74.49)"/><path class="cls-1" d="M404.61,127.22a30.07,30.07,0,0,1,13.82,17.63c1.05,3.69,1.4,7.36,3.62,10.61a36.8,36.8,0,0,0,7.63,7.58c1.49,1.21,3.63-.9,2.12-2.12-3-2.46-6.32-5-8.14-8.59s-2-7.94-3.54-11.71a33.26,33.26,0,0,0-14-16,1.5,1.5,0,0,0-1.51,2.59Z" transform="translate(-121.19 -74.49)"/><path class="cls-1" d="M404.06,126.71A27.51,27.51,0,0,1,420.74,137c2,2.64,3.24,5.74,5.24,8.37a16.16,16.16,0,0,0,7,5.2c1.78.73,2.56-2.17.79-2.89-6.64-2.72-8.35-10.54-13.12-15.36a30.4,30.4,0,0,0-15.78-8.45c-1.88-.37-2.69,2.52-.79,2.89Z" transform="translate(-121.19 -74.49)"/><path class="cls-1" d="M381,243.34c-3.81-2.89-8.42-4-12.66-6a20.1,20.1,0,0,1-10.26-11.58c-2.81-7.81-4-18.18-13.32-20.94v2.89A20.68,20.68,0,0,1,358.07,210c4.19,2.29,7,6,9.39,10,4.18,7.13,7.68,15.08,15.83,18.39,1.79.72,2.57-2.18.8-2.9-9.19-3.72-11.73-14.88-17.43-22A23.8,23.8,0,0,0,344,204.81c-1.53.25-1.31,2.5,0,2.89,9.8,2.91,9.06,16.59,13.57,23.88a22.31,22.31,0,0,0,9.3,8.34c4.22,2.05,8.86,3.13,12.65,6,1.54,1.16,3-1.44,1.52-2.59Z" transform="translate(-121.19 -74.49)"/><path class="cls-1" d="M347.91,206c6.51-1.55,15.62-3.36,21.14,1.56,2.35,2.11,3.95,4.9,6.48,6.84a15.32,15.32,0,0,0,8,3c1.92.19,1.9-2.81,0-3-4.1-.42-6.89-2.72-9.44-5.75-2-2.35-3.95-4.54-6.83-5.77-6.19-2.62-13.79-1.26-20.1.24-1.88.45-1.09,3.34.79,2.89Z" transform="translate(-121.19 -74.49)"/><path class="cls-1" d="M343.08,204.87l.77,1a1.52,1.52,0,0,0,2.59,0c3.32-5.46,11.59-3.37,16.69-2.39a94,94,0,0,1,16.58,4.86c1.79.71,2.57-2.19.79-2.89a93,93,0,0,0-21.06-5.61c-5.65-.81-12.24-1-15.59,4.52h2.59l-.77-1c-1.14-1.53-3.74,0-2.59,1.51Z" transform="translate(-121.19 -74.49)"/><path class="cls-1" d="M372.78,202.37c-6-5.68-3.1-14.85-2.72-22,.44-8.18-3.39-14.68-7.9-21.19l-.9,2.2c1.26-.5,4.13,2.84,5,3.67a49.24,49.24,0,0,1,4.11,4.19,21.82,21.82,0,0,1,5.22,10.18c1.22,6.76-.34,15.45,6.92,19.31,1.7.91,3.22-1.68,1.51-2.59-4.32-2.3-4.73-7.47-5-11.83-.23-4.06-.71-7.88-2.61-11.54a35.4,35.4,0,0,0-7.17-9c-2-1.93-5.62-6.52-8.8-5.24a1.51,1.51,0,0,0-.89,2.2c2.38,3.44,4.87,7,6.31,10.93,1.59,4.38,1.28,8.77.74,13.31-.81,6.77-1.4,14.47,4,19.57,1.41,1.33,3.53-.79,2.12-2.12Z" transform="translate(-121.19 -74.49)"/><path class="cls-1" d="M361.26,159.85c6.77.05,14.63,2.21,17.94,8.69,1.69,3.32,2.54,6.67,5.17,9.46a18.63,18.63,0,0,0,8.81,5.18,1.5,1.5,0,0,0,.8-2.89,15.48,15.48,0,0,1-9.46-7c-1.94-3.31-2.58-6.92-5.28-9.79-4.54-4.83-11.56-6.56-18-6.6a1.5,1.5,0,0,0,0,3Z" transform="translate(-121.19 -74.49)"/><path class="cls-1" d="M360.85,160.1a22.24,22.24,0,0,1,20.1,2.41c4.74,3.24,8.45,8.64,14.77,8.49,1.93,0,1.94-3,0-3-3.51.09-6.16-2.17-8.67-4.36a33.69,33.69,0,0,0-8-5.63,25.26,25.26,0,0,0-19-.8c-1.8.64-1,3.54.8,2.89Z" transform="translate(-121.19 -74.49)"/><path class="cls-1" d="M380.37,157.94c-2.9-2.4-2.69-6.11-2.55-9.55a25.71,25.71,0,0,0-1.07-9.23c-1.91-5.84-5.81-10.75-9.79-15.32l-1.46,2.51a21.71,21.71,0,0,1,17,16.62c.46,2.24.44,4.55,1.07,6.75a20.24,20.24,0,0,0,2.84,5.74,33.12,33.12,0,0,0,9.2,9c1.61,1.07,3.12-1.52,1.51-2.59a28.4,28.4,0,0,1-9.78-10.69c-2.07-4.18-1.51-9.12-3.38-13.44a24.71,24.71,0,0,0-17.7-14.28,1.51,1.51,0,0,0-1.46,2.5c4.31,4.94,8.7,10.5,9.81,17.16,1,5.73-1.62,12.63,3.6,16.94,1.48,1.22,3.61-.89,2.12-2.12Z" transform="translate(-121.19 -74.49)"/><path class="cls-1" d="M367.93,126.18c3.71.25,8.67-.23,12,1.55s5.11,5.66,6.85,8.9c3.27,6.1,8.15,10.57,14.91,12.44a1.5,1.5,0,0,0,.79-2.9,19.94,19.94,0,0,1-9.88-6.1c-2.62-3-3.92-6.86-6.17-10.12a13.77,13.77,0,0,0-6.67-5.55c-3.65-1.23-8-1-11.85-1.22-1.92-.14-1.92,2.87,0,3Z" transform="translate(-121.19 -74.49)"/><path class="cls-1" d="M368.53,126.06c3.61-.77,7.32-1.89,11-2.25s6.38,1.37,8.94,3.76c4.71,4.37,8.73,8.39,15.29,9.75,1.88.39,2.68-2.5.79-2.89a20.75,20.75,0,0,1-10-5.16c-2.31-2.13-4.38-4.53-7-6.31-6-4.11-13.35-1.17-19.81.21-1.89.4-1.09,3.29.79,2.89Z" transform="translate(-121.19 -74.49)"/><path class="cls-1" d="M357.17,228.54A79.42,79.42,0,0,1,345.05,222a30.24,30.24,0,0,1-9.35-10.86c-2.05-3.75-4.12-7.35-7.56-10-3.69-2.86-8.11-4.51-12.45-6.1l1.1,1.45c-.05-.44,8-1.47,8.83-1.52,3-.18,5.52.48,7.37,2.93,2.64,3.49,4.51,8.24,9.66,8.11,1.93-.05,1.94-3.05,0-3-3.85.09-5.33-4.36-7.29-6.94a9.78,9.78,0,0,0-6.69-4c-3.06-.41-6.15.25-9.16.77-2.07.35-6.07.61-5.72,3.65a1.6,1.6,0,0,0,1.1,1.44c4.43,1.63,9.1,3.32,12.63,6.58s5.09,7.72,7.59,11.61c4.79,7.43,12.78,11.39,20.55,15,1.74.8,3.27-1.78,1.51-2.59Z" transform="translate(-121.19 -74.49)"/><path class="cls-1" d="M317.05,196.1c6.6-5.86,18.29-11.11,26.83-6.4,7,3.88,11,12.74,20.09,12.49,1.93-.06,1.93-3.06,0-3-5.26.15-9-3.82-12.5-7.21-3.19-3.09-6.63-5.87-11.13-6.66-9.06-1.6-18.75,2.75-25.41,8.66-1.45,1.28.68,3.4,2.12,2.12Z" transform="translate(-121.19 -74.49)"/><path class="cls-1" d="M318.19,193.93a26.57,26.57,0,0,1,9.9-9.87c4.05-2.4,10.2-5.61,15-4.39,2.29.58,4.19,2.2,6,3.6a54.24,54.24,0,0,0,6.53,4.32c3.58,2,7.82,3.57,11.64,1.32a1.5,1.5,0,0,0-1.51-2.59c-4.62,2.72-11.29-2.72-14.83-5.4-4.08-3.08-7.7-5.22-13-4.12-8.92,1.87-17.93,7.58-22.4,15.62-.94,1.68,1.65,3.2,2.59,1.51Z" transform="translate(-121.19 -74.49)"/><path class="cls-1" d="M333.26,180c-2.49-3.43-4.91-6.88-5.78-11.11-.82-4-.47-8.18-.78-12.25-.43-5.8-2.43-12.1-8-14.89l-1.16,2.74c7.34,2.62,13.27,8,15.13,15.77,1.64,6.86,1.65,14.43,7.88,19,1.56,1.14,3.05-1.46,1.51-2.59-6.72-4.94-4.93-15.37-8.27-22.22-3.06-6.27-9-10.56-15.45-12.86-1.59-.56-2.67,2-1.15,2.75,6.42,3.24,6.52,11.33,6.68,17.57a33.71,33.71,0,0,0,1.37,10.29,36.5,36.5,0,0,0,5.4,9.32c1.13,1.54,3.73,0,2.59-1.52Z" transform="translate(-121.19 -74.49)"/><path class="cls-1" d="M318.14,145.3a31.53,31.53,0,0,1,15.6,3.57c5.33,3,8.17,7.82,9.78,13.59,2.48,8.89,4.32,21.77,15.44,23.72,1.89.33,2.7-2.56.8-2.89-12.31-2.16-11.32-19.36-15.75-28-4.84-9.49-15.87-13-25.87-12.94a1.5,1.5,0,0,0,0,3Z" transform="translate(-121.19 -74.49)"/><path class="cls-1" d="M319.68,144.74c5.16-.71,10.41-.8,15.16,1.62A31.27,31.27,0,0,1,345,155.44c5,6.5,10.63,14.22,19.93,12.91,1.9-.27,1.09-3.16-.8-2.89-10.17,1.43-15.33-11.41-21.48-17.15a26.29,26.29,0,0,0-9.88-6c-4.52-1.43-9.27-1.08-13.9-.44-1.9.26-1.09,3.15.8,2.89Z" transform="translate(-121.19 -74.49)"/><path class="cls-1" d="M317.64,189c-9.59-.22-11.07-12.24-12.18-19.38-1-6.71-3.25-14.2-9.94-17.3l-.36,2.75c9.37-1.32,15,8,17.36,15.62,1.93,6.09,3.91,14.16,11.73,14.43,1.93.07,1.93-2.93,0-3-5.11-.18-6.91-5.69-8.1-9.75a45.79,45.79,0,0,0-4.21-10.6c-3.7-6.24-10.13-10.65-17.58-9.6a1.51,1.51,0,0,0-.36,2.74c8.54,4,8,15,9.78,22.75,1.53,6.89,6,14.16,13.86,14.34,1.93,0,1.93-3,0-3Z" transform="translate(-121.19 -74.49)"/><path class="cls-1" d="M295.84,154.27c3,0,6-.19,9,0a9.83,9.83,0,0,1,8.17,4.54c2.66,3.68,5.58,8.25,10.78,7.74,1.9-.19,1.92-3.19,0-3-5.75.57-7.83-7.22-11.74-10.12-4.43-3.28-11.08-2.18-16.23-2.13a1.5,1.5,0,0,0,0,3Z" transform="translate(-121.19 -74.49)"/><path class="cls-1" d="M293.63,153.63c2.9-.93,5.81-2.07,8.78-2.75,3.56-.81,6.25.4,9.44,1.84,3.91,1.76,8.45,2.84,12-.27,1.45-1.28-.68-3.4-2.12-2.12-4,3.57-10-1.56-14.12-2.5-4.94-1.13-10.15,1.43-14.76,2.91-1.83.58-1,3.48.8,2.89Z" transform="translate(-121.19 -74.49)"/><path class="cls-1" d="M344.33,148a13.79,13.79,0,0,1-3.31-9.32c0-3.27.43-6.48-.31-9.71-1.29-5.68-5.13-10.35-8.75-14.73l-1.06,2.56a16.46,16.46,0,0,1,13.05,8c2.53,4.15,3.65,9,5,13.58,2.18,7.65,5.62,15.81,13.61,18.81,1.81.67,2.59-2.23.8-2.9-9.37-3.51-10.8-15.3-13.52-23.55-3-9-8.89-16.26-18.91-17-1.42-.09-1.82,1.65-1.07,2.57,4.18,5,8.38,10.39,8.36,17.25,0,3.14-.44,6.25.26,9.35a16.46,16.46,0,0,0,3.76,7.15c1.26,1.47,3.38-.66,2.12-2.12Z" transform="translate(-121.19 -74.49)"/><path class="cls-1" d="M332,116c5.64-.65,11.12,1.36,15.91,4.23a24,24,0,0,1,9.49,10.82c1.69,3.52,3.14,7.23,5.74,10.2,3.2,3.67,7.72,3.83,11.6,6.31,1.63,1.05,3.14-1.55,1.52-2.59-2.11-1.35-4.48-1.84-6.76-2.78a11.93,11.93,0,0,1-5.36-4.55c-2.48-3.65-3.77-8-6.07-11.71-5-8.21-16.46-14-26.07-12.93-1.89.22-1.92,3.22,0,3Z" transform="translate(-121.19 -74.49)"/><path class="cls-1" d="M333.56,115.29c6.34-4.56,14-4,20.24.41,4.93,3.52,9.25,8.16,15.67,8.5,1.93.1,1.92-2.9,0-3-7.14-.38-11.69-7.36-17.76-10.29a19.44,19.44,0,0,0-19.66,1.79c-1.55,1.12-.06,3.72,1.51,2.59Z" transform="translate(-121.19 -74.49)"/><path class="cls-1" d="M370.81,121.13c-6.87-10.49-.27-27.66-12.89-34.92L357.17,89c9,.48,13.54,9.46,16,17,2,6.27,3.12,15.45,10.14,18.17,1.8.69,2.58-2.21.79-2.9-4.2-1.63-5.35-7.26-6.51-11.09a79.86,79.86,0,0,0-4.17-11.77c-3.11-6.43-8.77-12-16.21-12.36a1.51,1.51,0,0,0-.76,2.8c5.48,3.16,6.89,9.89,7.44,15.73.6,6.24.82,12.69,4.37,18.11,1,1.61,3.65.11,2.59-1.51Z" transform="translate(-121.19 -74.49)"/><path class="cls-1" d="M360,89.08c11.75.34,24.14,3.54,27.23,16.38,1.24,5.14,2.08,10,5.39,14.28,3.08,4,7.22,7,11.29,9.92,1.57,1.12,3.07-1.48,1.52-2.59-4.57-3.28-9.39-6.75-12.16-11.77s-2.51-11.38-5.27-16.58c-5.35-10.07-17.65-12.34-28-12.64-1.93,0-1.93,3,0,3Z" transform="translate(-121.19 -74.49)"/><path class="cls-1" d="M355.38,89.89c4.63,4,1.91,11.16,2,16.36a35,35,0,0,0,4.07,15.39c.89,1.71,3.48.2,2.59-1.51a32.36,32.36,0,0,1-3.46-18.36c.48-4.92,1.05-10.43-3.12-14-1.46-1.25-3.59.86-2.12,2.12Z" transform="translate(-121.19 -74.49)"/><path class="cls-1" d="M308.87,148.77c-6.71-4-6.28-12.94-7.36-19.67-1-5.94-3.65-11.84-9.63-14.06l-.8,2.89c3.74.55,7.64,1.15,11.08,2.81,3.94,1.9,6,5,7.48,9,1.27,3.47,2.52,6.74,5,9.54a32.48,32.48,0,0,0,9.2,6.73c1.71.91,3.22-1.68,1.52-2.59-3.69-2-7.4-4.3-9.81-7.8s-3-7.88-5.17-11.5c-3.88-6.45-11.61-8.09-18.51-9.1a1.5,1.5,0,0,0-.8,2.89c7.4,2.75,7.5,12.27,8.38,18.75.78,5.72,2.67,11.57,7.89,14.68a1.5,1.5,0,0,0,1.52-2.59Z" transform="translate(-121.19 -74.49)"/><path class="cls-1" d="M293.35,117.78c8.51-4.13,17.42-.88,23.15,6.09,2.82,3.44,5.21,7.21,8.78,10a17.22,17.22,0,0,0,4.83,2.69,12.19,12.19,0,0,0,2.66.6,9,9,0,0,0,1.55.08c1,.07,1.05,0,.26-.3l-.23-1.82-.07.12,1.29-.75h-.16l1.5,1.5v-.1c0-1.93-3-1.93-3,0v.1a1.54,1.54,0,0,0,1.5,1.5h.16a1.49,1.49,0,0,0,1.3-.74l.07-.12a1.51,1.51,0,0,0-.24-1.82c-1.36-1.14-3.39-.45-5.05-.91a15.7,15.7,0,0,1-6.69-4.3c-3.54-3.59-6-8.14-9.8-11.47a21.41,21.41,0,0,0-23.32-2.9c-1.74.85-.22,3.43,1.51,2.59Z" transform="translate(-121.19 -74.49)"/><path class="cls-1" d="M292.75,117.44c3.94-2.06,8.13-4.25,12.63-4.68s8.09,1.43,11.58,4c5.43,4.06,11.63,9.56,18.93,6.86,1.79-.66,1-3.56-.8-2.89-8.29,3.06-14.57-6.29-21.23-9.45-7.73-3.66-15.65-.12-22.63,3.54-1.71.9-.19,3.49,1.52,2.59Z" transform="translate(-121.19 -74.49)"/><path class="cls-1" d="M323.57,116.82a22.07,22.07,0,0,1-4.14-9.34c-.66-3.75-.09-7.6-.38-11.39A37.91,37.91,0,0,0,312.72,78L311,80.19a15.86,15.86,0,0,1,9.53,4.8c2.6,2.79,3.7,6.39,4.58,10,1.5,6.26,2.89,13.07,8.82,16.66a1.5,1.5,0,0,0,1.51-2.59c-6.93-4.19-6.4-13.71-9.14-20.41A18.41,18.41,0,0,0,311.82,77.3c-1.16-.16-2.5,1-1.69,2.2a35.55,35.55,0,0,1,6,20.16c0,6.9.6,13,4.83,18.68,1.14,1.53,3.75,0,2.59-1.52Z" transform="translate(-121.19 -74.49)"/><path class="cls-1" d="M313,80.09a20.24,20.24,0,0,1,21,9.23c4.35,7.29,3.2,17.56,11.5,22.26A1.5,1.5,0,0,0,347,109c-4.78-2.71-6-8.24-7.35-13.16-1.17-4.31-2.72-8.32-5.79-11.64a23.36,23.36,0,0,0-21.64-7c-1.89.38-1.09,3.28.8,2.89Z" transform="translate(-121.19 -74.49)"/><path class="cls-1" d="M313.67,79.13a23.89,23.89,0,0,1,24.17,8.66c2.76,3.66,4.9,7.41,8.7,10.14a24,24,0,0,0,12.11,4.32c1.92.16,1.91-2.85,0-3a20.71,20.71,0,0,1-13.18-6.17c-3.46-3.59-5.46-8.2-9.38-11.42a27.11,27.11,0,0,0-23.21-5.42c-1.88.43-1.09,3.32.79,2.89Z" transform="translate(-121.19 -74.49)"/><path class="cls-1" d="M297.23,110.06c-6.14-4.19-6.93-12.36-9.65-18.7-2.52-5.89-7.1-10.11-12.71-13.06l-.75,2.79c9,.47,17.47,3.12,22.07,11.41,2,3.57,3.15,7.46,4.77,11.19,1.35,3.12,3.24,5.86,6.58,7,1.83.62,2.62-2.27.8-2.89-4-1.37-5.21-6.76-6.59-10.27a38,38,0,0,0-5.85-10.75c-5.34-6.37-13.85-8.27-21.78-8.68a1.51,1.51,0,0,0-.76,2.8,27.47,27.47,0,0,1,8,6.07c2.55,2.91,3.89,6.46,5.08,10.09,1.93,5.9,3.87,11.93,9.24,15.6,1.6,1.09,3.1-1.51,1.51-2.59Z" transform="translate(-121.19 -74.49)"/><path class="cls-1" d="M275.36,80.07c4.12-.89,8.49-1.67,12.66-.65,3.7.91,6.52,3.34,9.23,5.89,4.82,4.56,10.5,9.7,17.67,7.81a1.5,1.5,0,0,0-.79-2.89c-8.05,2.11-13.55-6.78-19.22-10.83-6.11-4.37-13.36-3.74-20.34-2.23-1.89.41-1.09,3.31.79,2.9Z" transform="translate(-121.19 -74.49)"/><path class="cls-1" d="M274.83,80.29c5.67-3.71,12.5-3.3,18.7-1.19,5.91,2,11.16,6,17.45,6.84,1.88.26,2.7-2.63.79-2.89-7.12-1-13.08-5.83-20-7.62-6.22-1.61-12.94-1.32-18.43,2.27-1.61,1-.11,3.65,1.51,2.59Z" transform="translate(-121.19 -74.49)"/><path class="cls-1" d="M574.94,381.32c-5.61-.86-11.48-2.44-16.31-5.52-3.64-2.31-7.82-8.82-2.53-11.95a1.5,1.5,0,0,0-1.52-2.59c-5.15,3-4.7,10-1.12,14.09,4.85,5.54,13.73,7.8,20.68,8.87,1.89.29,2.71-2.6.8-2.9Z" transform="translate(-121.19 -74.49)"/></svg>