<svg id="Calque_3" data-name="Calque 3" xmlns="http://www.w3.org/2000/svg" viewBox="0 0 570.7 405.25"><defs><style>.cls-1{fill:#725238;}.cls-2{fill:#f4ed06;}</style></defs><title>mireille2</title><path class="cls-1" d="M404,387c-3.63,4-24.32,24.16-24.91,28s-1.91,8.41-3.86,7-.59-4.89-2.93-6.31-6.55-2.74-5.53-5.44,7.56-.33,10.45-3.48,19.06-23.17,22.41-24.45S406.54,384.22,404,387Z" transform="translate(-121.19 -74.49)"/><path class="cls-1" d="M245.8,297.86c-2.62-5.05-14.3-17.73-19.55-18s-28.35-7-36.67-9.11-60.06-11.48-66.75-6.31,9,3.42,12.92,4.38,38.52,7.73,41.91,8.53,40.87,6.51,45.13,9,15.92,12.63,18.32,14.79S247.72,301.55,245.8,297.86Z" transform="translate(-121.19 -74.49)"/><path class="cls-2" d="M467.45,247.45c32.71-13.09,129.11-21.19,183.58,37.32s53.46,155.34-2,154.33c-36.31-23.2-153.32-88.77-191.65-85.74s-60.52-94.82-31.27-96.84S452.31,253.5,467.45,247.45Z" transform="translate(-121.19 -74.49)"/><path class="cls-2" d="M310,354.9c9.13-11.33,32.93-43.8,34-53.95,1.58-15.59-5.08-24.06-17.06-25.24-11.76-1.16-22.53,1.45-37.16,3.92S218,295.78,203.06,321.71s6.89,39.6,17.6,47.12,22.82,17.72,33.73,23.42S301.37,365.63,310,354.9Z" transform="translate(-121.19 -74.49)"/><ellipse class="cls-1" cx="271.88" cy="330.98" rx="37.57" ry="17.9" transform="translate(-210.77 26.69) rotate(-18.15)"/><path class="cls-1" d="M212.13,356.21c-12.5-.78-36.74,9.67-43.16,10.43s-28.48,19-33.74,30.27c-.56-15.9,22.45-38.9,34.24-42.45s33.29-14.7,37.42-10S216.53,356.48,212.13,356.21Z" transform="translate(-121.19 -74.49)"/><path class="cls-1" d="M259.22,290.05c1.6-9.55,10.55-43,8.63-46.65S247,231.18,242.12,230.75s-55.85-13.24-61.05-10.12-6.15,7.87-.08,6.43,14.39.64,19.49,2.26,52,13.12,55.86,13.23,3.73.63,2.62,5.89-4.27,20.53-5.72,26,.19,12.69-1,15.41S258.6,293.78,259.22,290.05Z" transform="translate(-121.19 -74.49)"/><path class="cls-1" d="M584.46,245.43a2.89,2.89,0,0,1,1.31,2c3.43,12.56-18.51,75.7-25.52,82.25-7.57,7.06-19.17,39.34-25.72,39.34s-12.11-18.16-7.57-27.24S534,324.11,542.59,308s7.57-30.77,11.1-48.42.5-21.18,6.56-19.67S581.43,243.92,584.46,245.43Z" transform="translate(-121.19 -74.49)"/><path class="cls-1" d="M644,277.2c-5.55,17.66-33.79,62-36.82,67.59S587.48,372.53,579.41,372s-28.75-13.62-16.14-22.69,31.27-21.19,37.83-27.74,14.63-28.25,14.63-37.83,2.52-20.68,3.53-24.71C625.31,264.59,639.94,273.17,644,277.2Z" transform="translate(-121.19 -74.49)"/><path class="cls-1" d="M666.67,303.43c-3,8.07-10.6,28.24-16.14,30.76s-31.27,15.64-36.32,17.66S597.07,362.94,593,367s-11.1,27.74,11.6,19.16S650,364,653.55,357.4s29.26-23.71,24.72-32.79S670.2,308,666.67,303.43Z" transform="translate(-121.19 -74.49)"/><path class="cls-1" d="M688.86,357.4c-3.53,6.55-15.64,19.67-21.18,19.16s-31.28,3-38.84,5.55-24.71,14.63-12.1,17.65,50.43-3,59.51-7.06,12.61-7.06,15.63-11.1C691.38,372.53,690.37,362.44,688.86,357.4Z" transform="translate(-121.19 -74.49)"/><path class="cls-1" d="M690.88,398.25c-7.07,2-32.28,8.57-40.35,7.56s-16.65,2.53-16.65,7.06.26,13.62,3.79,18.67c7.31,4.79,9.58,6.8,11.34,7.56,5,0,19.67-2,25.47-8.83S682.81,423.47,690.88,398.25Z" transform="translate(-121.19 -74.49)"/><path class="cls-1" d="M541.59,237.86c-1.52,14.12-8.58,52.46-14.63,60s-10.59,34.3-12.61,40.35-8.07,24.71-17.15,22.7-53.46-3-58.5-8.07-45.39-60-33.79-79.19,44.38-18.15,50.43-21.18,21.18-13.11,32.28-13.62S534.53,236.35,541.59,237.86Z" transform="translate(-121.19 -74.49)"/><path class="cls-2" d="M307.06,256.52c5-18,25.72-31,48.42-31.77s73.38-6.05,87,15.13,37.07,59.77,25.72,89.27S431.89,393.46,413,391.94s-75.66-24.21-85.49-36.31S303.28,270.14,307.06,256.52Z" transform="translate(-121.19 -74.49)"/><path class="cls-1" d="M437.13,343.88c15.51,5.77,23.37,23.36,32.61,35.64s22.85,29.72,20.37,36.56S463.22,459,460.74,465.84s-3.66,11.54-7.59,6.66-3.63-6.9-7.12-6.83-8-3.89-3.55-5,12.19,2.08,13.77-1,18.08-37.53,18.28-41.47-37-54-38.15-57.26S433.14,342.39,437.13,343.88Z" transform="translate(-121.19 -74.49)"/><path class="cls-1" d="M413.31,362c-6.48-.52-6.38,5.09-2,11.8s18.15,32.43,15.95,39.31-9.6,39.19-12.06,42.85-3.82,10.57-6.37,11.35-6.92,12.86-2.61,9.58,7.42-5.57,7.72-4-2.85,5.52-.84,6.25,6.2,2.52,5.61-7.65,23.28-51.88,24.89-55.56-9.55-31-15.76-39.82S416.35,362.29,413.31,362Z" transform="translate(-121.19 -74.49)"/><path class="cls-1" d="M366.07,365.47c-6.63-4.56-9.83-4.17-10.21,0s-.38,7.94-7.57,14-24.21,12.11-25.72,16.64,14.37,42.75,16.64,48-9.45,7.57-7.18,13.62,15.5-1.89,16.26-7.18-15.51-40.86-11.35-44.64,26.48-6.43,30.26-15.13S372.12,369.63,366.07,365.47Z" transform="translate(-121.19 -74.49)"/><path class="cls-1" d="M374.1,270.79c2.17-3.47,4.44-7.27,4.44-11.5,0-3.63-1.77-6.8-3.9-9.62-2.43-3.22-5.35-6.16-6.7-10A17.39,17.39,0,0,1,369,225.89c.75-1.44-1.17-3.14-2.36-1.81-6.09,6.81-10,16.27-8,25.47,1.06,4.88,5,8.76,5.74,13.63s-4.05,8.82-5.69,13.14c-.69,1.81,2.21,2.59,2.89.8,1.54-4.05,5.19-7,5.81-11.47s-2.26-8.43-4.21-12.3c-4.61-9.13-.9-19.94,5.56-27.15l-2.36-1.82a20.64,20.64,0,0,0,2.05,22.3c2.27,3,5.23,5.86,6.5,9.51,1.65,4.75-1,9.17-3.48,13.09-1,1.64,1.57,3.15,2.59,1.51Z" transform="translate(-121.19 -74.49)"/><path class="cls-1" d="M365.25,224.58c-7.79,3.93-16.26,9.64-17.12,19.17-.45,5.07,2.16,9.77,1.89,14.89-.3,5.59-1.19,11.19-1.82,16.75-.21,1.92,2.79,1.9,3,0,.56-4.94,1.2-9.88,1.67-14.83a28.33,28.33,0,0,0,0-6.7c-.32-2.17-1.09-4.21-1.51-6.35-2-10.09,7.72-16.45,15.43-20.34,1.72-.87.2-3.46-1.52-2.59Z" transform="translate(-121.19 -74.49)"/><path class="cls-1" d="M371.42,244.15c6.8-6.85,8.09-16.2,5.22-25.18-3-9.47-10.5-20.13-5.91-30.32a1.5,1.5,0,0,0-2.35-1.81c-2.58,2.13-5.2,4.41-6.49,7.58a16.23,16.23,0,0,0-.21,10.15c1.68,6.48,7.6,15.4,1.72,21.41-1.36,1.38.76,3.5,2.12,2.12,4.81-4.92,3.49-11.92,1.34-17.75-1.35-3.65-3-7.38-2.9-11.36.15-4.52,3.29-7.34,6.54-10l-2.36-1.82c-4.1,9.08-.09,18.32,3.44,26.85,1.93,4.68,3.8,9.59,3.63,14.74A19.87,19.87,0,0,1,369.3,242c-1.36,1.38.76,3.5,2.12,2.13Z" transform="translate(-121.19 -74.49)"/><path class="cls-1" d="M366.58,187.62c-5.58,5.42-12.15,11.28-12.65,19.6-.25,4.08,1.8,7.61,2.39,11.54A16.6,16.6,0,0,1,353.09,231c-1.14,1.56,1.46,3.06,2.59,1.51a19.3,19.3,0,0,0,3.68-9.44c.43-4-.78-7.42-1.84-11.22-2.63-9.42,5.1-16.21,11.18-22.12,1.39-1.35-.74-3.47-2.12-2.12Z" transform="translate(-121.19 -74.49)"/><path class="cls-1" d="M367.57,187.21c-9.14.87-16.5,7.52-19.46,16a32.69,32.69,0,0,0-1.17,15.37c.87,6,4.7,12.11,3.5,18.18-.37,1.89,2.52,2.7,2.9.8,1-4.85-.75-9.21-2.15-13.79a33.75,33.75,0,0,1-1.26-15.58c1.55-8.91,8.22-17.13,17.64-18,1.9-.18,1.92-3.18,0-3Z" transform="translate(-121.19 -74.49)"/><path class="cls-1" d="M375.55,252.33c4.65-1.75,9.38-3.7,12.22-8,2.63-4,3.09-8.94,3.51-13.58.47-5.15.81-10.79,4.34-14.89,3.9-4.54,10.15-7.24,15.22-10.23a1.51,1.51,0,0,0-.36-2.74c-7.05-1.63-14.51-.35-19,5.81-3.8,5.28-6.29,18.27-15.06,17-1.88-.28-2.7,2.61-.79,2.89,7.65,1.1,12.09-5.75,14.9-11.81,1.65-3.55,3.32-7.44,6.75-9.63,3.65-2.34,8.27-2.32,12.36-1.38l-.36-2.74c-4.87,2.86-10.3,5.44-14.48,9.3-3.55,3.3-5.21,7.64-5.91,12.34s-.59,9.65-2,14.27c-1.81,6-6.73,8.45-12.21,10.51-1.79.67-1,3.57.8,2.89Z" transform="translate(-121.19 -74.49)"/><path class="cls-1" d="M407.53,203.6c-6.37-2.27-13.18-4.16-19.47-.63-5.09,2.86-8.8,8.25-14.81,9.29-1.89.33-1.09,3.22.8,2.89,5.38-.93,9-5,13.23-8.09a14.28,14.28,0,0,1,8.62-3.14c3.73,0,7.36,1.34,10.83,2.57,1.83.65,2.61-2.24.8-2.89Z" transform="translate(-121.19 -74.49)"/><path class="cls-1" d="M409,203.16c-3.17-1.72-6.32-3.48-9.51-5.15a18.38,18.38,0,0,0-8.5-2.61c-3,0-5.85,1.12-8.59,2.23l-10.32,4.2c-1.76.72-1,3.62.8,2.89l8.6-3.5c2.76-1.12,5.65-2.54,8.66-2.79s5.92,1.14,8.6,2.58c2.92,1.56,5.83,3.16,8.74,4.74,1.7.92,3.22-1.67,1.52-2.59Z" transform="translate(-121.19 -74.49)"/><path class="cls-1" d="M376.35,268.3c4-2.81,9-1.58,13.37-.52,4.71,1.13,9.53,2.09,14.37,1.23,4.5-.79,8.35-3.37,12.06-5.9,2.87-2,11.8-8.14,13.11-1.29.33,1.7,2.93,1.25,2.95-.4A11.84,11.84,0,0,0,426.44,251c-4.16-2.4-9.31-1.73-13.63-.13-5.12,1.89-9.75,5.06-15.28,5.7-6.39.73-12.72-1.26-18.75-3.12-1.85-.58-2.64,2.32-.8,2.89,9.53,2.94,18.65,4.95,28.13.79,4.34-1.9,8.62-4.51,13.48-4.7,5.35-.21,9.68,3.57,9.62,9l2.94-.39c-.91-4.8-6.33-6.11-10.41-4.64-5.16,1.85-9.1,6.12-14.08,8.36-6.16,2.78-12.38,1.21-18.64-.22-4.75-1.08-10-1.79-14.18,1.17-1.57,1.1-.08,3.71,1.51,2.6Z" transform="translate(-121.19 -74.49)"/><path class="cls-1" d="M432.22,260.17c2.44-8.67-3.74-16.85-12.49-17.74-9.28-1-21.9,6.91-29.83-.58-1.4-1.33-3.53.79-2.12,2.12,6.37,6,15.35,3.71,23,2.19,4.86-1,10.68-1.76,14.87,1.56a11.15,11.15,0,0,1,3.68,11.66,1.5,1.5,0,0,0,2.89.79Z" transform="translate(-121.19 -74.49)"/><path class="cls-1" d="M432.42,260.5c1.26-8.92,1.86-22.93-7.18-28.31-4.27-2.54-9.48-2.51-14.2-1.45-5.14,1.16-12.64,5.86-17.29,1.37-1.39-1.34-3.52.78-2.13,2.13,3.1,3,7.34,3.16,11.32,2.11,5.19-1.36,10.06-3.82,15.59-3.23,12.49,1.33,12.33,17.2,11,26.58-.27,1.89,2.62,2.7,2.89.8Z" transform="translate(-121.19 -74.49)"/><path class="cls-1" d="M423.11,232.39c4.86-3.81,5.15-10.17,5.31-15.84.21-7.11,2.35-13.4,8.48-17.53,1.32-.89.54-3.35-1.16-2.74a23.62,23.62,0,0,0-14.14,13.89c-1.49,4-1.17,8.24-2.31,12.29a22.53,22.53,0,0,1-6.79,10.69c-1.44,1.29.69,3.4,2.12,2.12a25.4,25.4,0,0,0,6.34-8.64c1.54-3.48,1.87-7,2.35-10.73a20.44,20.44,0,0,1,13.23-16.72l-1.16-2.75a21.83,21.83,0,0,0-9.47,14.2c-1.14,6.5,1,15-4.92,19.64-1.52,1.19.62,3.3,2.12,2.12Z" transform="translate(-121.19 -74.49)"/><path class="cls-1" d="M434.87,194.66c-3.83,2.82-8.94,2.11-12.65,5.41-3.46,3.09-5.63,7.68-7.92,11.64-4.88,8.41-9.89,17.22-18.37,22.48-1.64,1-.13,3.61,1.52,2.59,8-5,13.21-12.91,17.9-20.91,2.4-4.1,4.54-8.71,7.67-12.32a11.86,11.86,0,0,1,6.76-3.8c2.35-.56,4.63-1,6.61-2.5,1.54-1.13,0-3.73-1.52-2.59Z" transform="translate(-121.19 -74.49)"/><path class="cls-1" d="M436.07,195.91c-7.56-1.36-14.07,2.8-19.33,7.82-5.83,5.56-11.67,13.08-20.54,12.86-1.93-.05-1.93,2.95,0,3,7.44.18,13.38-4.52,18.4-9.5,5.5-5.47,12-12.84,20.67-11.28,1.89.34,2.7-2.55.8-2.9Z" transform="translate(-121.19 -74.49)"/><path class="cls-1" d="M421.16,202.84c2.52-6.18.07-12.45-1.91-18.39a25.17,25.17,0,0,1-1.67-9.85,30.45,30.45,0,0,1,3.66-11.3c.61-1.21-.75-3-2.05-2.05A24.84,24.84,0,0,0,409.3,177c-1.3,7.65-.27,15.78-7.5,20.74-1.58,1.09-.08,3.69,1.52,2.59,5.86-4,7.73-10,8.29-16.77.33-3.89.6-7.74,2.26-11.33a21.87,21.87,0,0,1,6.83-8.39l-2.05-2.06c-3.09,6.09-5,12.5-3.5,19.32s6,13.79,3.12,20.94c-.73,1.79,2.17,2.57,2.89.8Z" transform="translate(-121.19 -74.49)"/><path class="cls-1" d="M418.3,163.25c-7.14-1.27-13,4.87-16.74,10.2-4.28,6.05-3.05,16.43-10.09,20.35-1.69.94-.18,3.53,1.51,2.59,5.81-3.23,6.73-9.87,8.46-15.67a23.57,23.57,0,0,1,6-9.67c2.6-2.72,6-5.62,10.05-4.9,1.88.33,2.69-2.56.79-2.9Z" transform="translate(-121.19 -74.49)"/><path class="cls-1" d="M417.58,162.38c-9.27-1.39-17.21,3.77-23.21,10.39-2.84,3.13-5.23,6.47-6.19,10.64-1,4.42-.9,10.26-5.52,12.64-1.71.89-.2,3.48,1.52,2.59,7.55-3.9,5.19-14,9.44-20.23,5-7.31,13.75-14.55,23.16-13.13,1.89.28,2.71-2.61.8-2.9Z" transform="translate(-121.19 -74.49)"/><path class="cls-1" d="M389.05,187.15c1.72-7.13-1.72-13.49-5.05-19.55-4-7.22-5.85-14.56-3.66-22.7a1.51,1.51,0,0,0-2.74-1.16,35.3,35.3,0,0,0-5.35,28c1.13,4.86,3.61,8.92,2.78,14.11a17.28,17.28,0,0,1-2.66,6.84c-.9,1.35-3.48,2.94-3.5,4.61a1.56,1.56,0,0,0,1.1,1.45l.23.08a1.46,1.46,0,0,0,1.46-.38l.11-.14c1.25-1.46-.86-3.59-2.12-2.12l-.11.13,1.46-.38-.23-.08,1.1,1.44c0,.93,1.74-1.29,2-1.64a19.65,19.65,0,0,0,3.89-8.32c.93-4.53,0-8.41-1.53-12.65a32.3,32.3,0,0,1,3.93-29.44l-2.74-1.15A30.11,30.11,0,0,0,379,164.37c3.11,7,9.13,13.85,7.17,22-.45,1.88,2.44,2.68,2.89.8Z" transform="translate(-121.19 -74.49)"/><path class="cls-1" d="M379.25,145c-4-.87-7.4,3.19-9.63,6a34.08,34.08,0,0,0-5.69,10.81,39.11,39.11,0,0,0-1.79,12.24c.05,4.69,2,10.81-2.21,14.28-1.49,1.22.65,3.34,2.13,2.12,2.93-2.41,3.66-6.15,3.52-9.78-.15-4.12-.68-8.07-.1-12.21a34,34,0,0,1,3.48-11,29.39,29.39,0,0,1,3.48-5.21c1.2-1.42,3.9-4.85,6-4.38,1.89.41,2.69-2.48.8-2.9Z" transform="translate(-121.19 -74.49)"/><path class="cls-1" d="M376.33,143.14c-9.17,3.81-15.2,11.46-17.75,21a68.67,68.67,0,0,0-1.94,14.77c-.23,5.33-.44,10.78-3.58,15.31-1.1,1.59,1.5,3.1,2.59,1.52,5.35-7.71,3.39-18,4.93-26.75,1.76-10,6.87-18.91,16.55-22.93,1.75-.73,1-3.63-.8-2.89Z" transform="translate(-121.19 -74.49)"/><path class="cls-1" d="M409.1,164.52c3.22-5.76,2.71-12.3,1.64-18.59-1.18-7-3.11-14.59.74-21.07a1.51,1.51,0,0,0-2.36-1.82,58.38,58.38,0,0,0-8.42,10.7,24.5,24.5,0,0,0-3,13.66c.27,5.48.7,10.57-1.72,15.68-2.16,4.54-5.47,8.41-8.75,12.18-1.26,1.45.86,3.58,2.12,2.12,6.19-7.13,11.92-14.58,11.66-24.48-.14-5.45-1-10.75,1.34-15.9,2.08-4.52,5.51-8.23,8.86-11.84l-2.36-1.82c-3.37,5.68-2.95,12.26-1.91,18.54,1.15,7,3.19,14.56-.47,21.12-.94,1.69,1.65,3.21,2.59,1.52Z" transform="translate(-121.19 -74.49)"/><path class="cls-1" d="M407,124.63a33.31,33.31,0,0,0-14,16c-1.55,3.76-1.68,8.09-3.54,11.71s-5.1,6.13-8.14,8.59c-1.5,1.22.63,3.33,2.12,2.12a38.09,38.09,0,0,0,7.42-7.26c2.37-3.35,2.74-7.09,3.83-10.93a30.09,30.09,0,0,1,13.83-17.63,1.5,1.5,0,0,0-1.52-2.59Z" transform="translate(-121.19 -74.49)"/><path class="cls-1" d="M408.22,123.82a30.33,30.33,0,0,0-15.78,8.45c-4.74,4.83-6.48,12.64-13.12,15.36-1.76.72-1,3.62.8,2.89a16.16,16.16,0,0,0,6.86-5.05c2.06-2.66,3.32-5.84,5.35-8.52A27.53,27.53,0,0,1,409,126.71c1.89-.37,1.09-3.26-.8-2.89Z" transform="translate(-121.19 -74.49)"/><path class="cls-1" d="M433.55,245.93c3.69-2.8,8.16-3.9,12.29-5.84a22.5,22.5,0,0,0,9.66-8.51c4.52-7.29,3.78-21,13.57-23.88,1.31-.39,1.54-2.64,0-2.89a23.78,23.78,0,0,0-22.65,8.58c-5.7,7.16-8.24,18.32-17.44,22-1.76.72-1,3.62.8,2.9,8.15-3.31,11.66-11.26,15.84-18.39,2.3-3.92,5-7.52,9.05-9.81a20.73,20.73,0,0,1,13.6-2.43v-2.89c-9.32,2.77-10.48,13.13-13.32,20.94a20,20,0,0,1-9.9,11.4c-4.32,2.18-9.1,3.22-13,6.19-1.52,1.15,0,3.75,1.51,2.59Z" transform="translate(-121.19 -74.49)"/><path class="cls-1" d="M466,203.14c-6.31-1.5-13.92-2.87-20.11-.24-2.75,1.18-4.68,3.21-6.57,5.46-2.65,3.15-5.41,5.62-9.69,6.06-1.91.19-1.93,3.2,0,3a15.29,15.29,0,0,0,8-3c2.53-1.94,4.15-4.71,6.49-6.84,5.45-5,14.68-3.09,21.13-1.56,1.88.45,2.68-2.44.8-2.89Z" transform="translate(-121.19 -74.49)"/><path class="cls-1" d="M467.4,203.36l-.77,1h2.59c-3.35-5.51-9.93-5.33-15.59-4.52a93.71,93.71,0,0,0-21.06,5.61c-1.78.69-1,3.6.8,2.89a93.69,93.69,0,0,1,16.57-4.86c5.11-1,13.37-3.07,16.69,2.39a1.52,1.52,0,0,0,2.59,0l.77-1c1.15-1.55-1.45-3-2.59-1.51Z" transform="translate(-121.19 -74.49)"/><path class="cls-1" d="M442.41,204.49c5.44-5.1,4.86-12.8,4-19.57-.53-4.39-.86-8.65.6-12.91s4-7.77,6.45-11.33a1.52,1.52,0,0,0-.9-2.2c-3.18-1.28-6.77,3.31-8.79,5.24a35.44,35.44,0,0,0-7.18,9c-1.9,3.66-2.37,7.48-2.61,11.54-.26,4.36-.67,9.53-5,11.83-1.7.91-.19,3.5,1.52,2.59,7.25-3.86,5.69-12.55,6.92-19.31a21.71,21.71,0,0,1,5.21-10.18,52.46,52.46,0,0,1,3.82-3.93c.91-.85,4-4.45,5.3-3.93l-.89-2.2c-4.51,6.51-8.34,13-7.91,21.19.39,7.16,3.33,16.33-2.72,22-1.41,1.33.72,3.45,2.12,2.12Z" transform="translate(-121.19 -74.49)"/><path class="cls-1" d="M451.82,156.85c-6.43,0-13.44,1.77-18,6.6-2.69,2.87-3.34,6.49-5.27,9.79a15.54,15.54,0,0,1-9.46,7,1.5,1.5,0,0,0,.79,2.89A18.63,18.63,0,0,0,428.7,178c2.63-2.81,3.48-6.13,5.17-9.46,3.32-6.48,11.18-8.64,17.95-8.69a1.5,1.5,0,0,0,0-3Z" transform="translate(-121.19 -74.49)"/><path class="cls-1" d="M453,157.21a25.27,25.27,0,0,0-19,.8,32.35,32.35,0,0,0-7.7,5.39c-2.59,2.26-5.31,4.69-8.95,4.6-1.93,0-1.93,3,0,3,6.32.15,10-5.25,14.77-8.49a22.26,22.26,0,0,1,20.11-2.41c1.82.65,2.6-2.25.79-2.89Z" transform="translate(-121.19 -74.49)"/><path class="cls-1" d="M434.82,160.06c5.21-4.3,2.66-11.22,3.6-16.94,1.1-6.65,5.51-12.22,9.81-17.16a1.51,1.51,0,0,0-1.46-2.5,24.71,24.71,0,0,0-17.7,14.28c-1.79,4.15-1.31,8.82-3.13,12.88a27.58,27.58,0,0,1-10,11.25c-1.6,1.06-.1,3.66,1.51,2.59a33.45,33.45,0,0,0,9-8.66,21.18,21.18,0,0,0,3-5.7c.74-2.31.7-4.76,1.18-7.13a21.72,21.72,0,0,1,17-16.62l-1.46-2.51c-4,4.57-7.86,9.48-9.78,15.32a24.55,24.55,0,0,0-1.09,8.77c.12,3.57.51,7.5-2.54,10-1.49,1.23.64,3.34,2.12,2.12Z" transform="translate(-121.19 -74.49)"/><path class="cls-1" d="M445.14,123.18c-3.8.26-8.2,0-11.84,1.22a13.75,13.75,0,0,0-6.68,5.55c-2.25,3.26-3.54,7.11-6.17,10.12a19.94,19.94,0,0,1-9.88,6.1,1.51,1.51,0,0,0,.8,2.9c6.76-1.87,11.63-6.34,14.9-12.44,1.69-3.15,3.31-6.83,6.54-8.72,3.39-2,8.51-1.47,12.33-1.73,1.91-.13,1.93-3.14,0-3Z" transform="translate(-121.19 -74.49)"/><path class="cls-1" d="M445.34,123.17c-6.47-1.38-13.81-4.32-19.81-.21-2.51,1.71-4.52,4-6.72,6.06a21,21,0,0,1-10.29,5.41c-1.89.39-1.09,3.28.8,2.89,6.55-1.36,10.57-5.38,15.28-9.75,2.43-2.26,5.07-4,8.53-3.79,3.8.26,7.69,1.49,11.41,2.28,1.88.4,2.69-2.49.8-2.89Z" transform="translate(-121.19 -74.49)"/><path class="cls-1" d="M457.41,231.13c7.78-3.61,15.77-7.57,20.55-15,2.44-3.78,4-8.15,7.31-11.33,3.55-3.44,8.36-5.19,12.91-6.86a1.58,1.58,0,0,0,1.1-1.44c.33-2.88-3.24-3.23-5.25-3.57-3.15-.54-6.41-1.29-9.63-.85a9.69,9.69,0,0,0-6.57,3.85c-2,2.59-3.5,7.18-7.41,7.09-1.93-.05-1.93,2.95,0,3,5.15.13,7-4.62,9.66-8.11,1.86-2.45,4.4-3.1,7.37-2.93.79,0,8.88,1.09,8.83,1.52l1.1-1.45c-4.21,1.54-8.52,3.13-12.14,5.86s-5.74,6.36-7.87,10.25a30.32,30.32,0,0,1-9,10.64,76.59,76.59,0,0,1-12.44,6.74c-1.75.81-.23,3.39,1.51,2.59Z" transform="translate(-121.19 -74.49)"/><path class="cls-1" d="M498.15,194c-6.67-5.91-16.35-10.26-25.42-8.66-4.36.76-7.73,3.4-10.85,6.39-3.6,3.45-7.37,7.63-12.78,7.48-1.93-.06-1.93,2.94,0,3,9.08.25,13-8.61,20.09-12.49,8.54-4.71,20.23.54,26.83,6.4,1.44,1.28,3.57-.84,2.13-2.12Z" transform="translate(-121.19 -74.49)"/><path class="cls-1" d="M497.47,192.42c-4.47-8-13.47-13.75-22.39-15.62-5.1-1.07-8.7.88-12.66,3.88-3.58,2.72-10.44,8.41-15.14,5.64a1.5,1.5,0,0,0-1.52,2.59c3.68,2.16,7.76.77,11.25-1.11a51.19,51.19,0,0,0,6.61-4.29c1.92-1.45,3.93-3.26,6.34-3.84,4.76-1.14,10.66,1.85,14.69,4.19a26.88,26.88,0,0,1,10.23,10.07c.94,1.69,3.53.18,2.59-1.51Z" transform="translate(-121.19 -74.49)"/><path class="cls-1" d="M482.4,181.52a36.37,36.37,0,0,0,5.41-9.32,34.34,34.34,0,0,0,1.37-10.29c.15-6.24.25-14.33,6.68-17.57,1.5-.76.45-3.32-1.16-2.75-6.44,2.3-12.39,6.59-15.45,12.86-3.34,6.85-1.54,17.28-8.27,22.22-1.54,1.13-.05,3.73,1.51,2.59,6.23-4.57,6.24-12.14,7.89-19,1.85-7.73,7.79-13.15,15.12-15.77l-1.16-2.74c-5.53,2.79-7.53,9.09-8,14.89-.31,4.07,0,8.23-.78,12.25-.86,4.23-3.29,7.69-5.78,11.11-1.14,1.57,1.47,3.07,2.59,1.52Z" transform="translate(-121.19 -74.49)"/><path class="cls-1" d="M494.94,142.3c-10,0-21,3.46-25.87,12.94-4.46,8.69-3.43,25.89-15.76,28-1.9.33-1.09,3.22.8,2.89,11.12-2,13-14.83,15.45-23.72,1.56-5.63,4.3-10.41,9.47-13.41a31.3,31.3,0,0,1,15.91-3.75,1.5,1.5,0,0,0,0-3Z" transform="translate(-121.19 -74.49)"/><path class="cls-1" d="M494.19,141.85c-4.5-.62-9.11-1-13.53.32a26.11,26.11,0,0,0-10.25,6.14c-6.15,5.74-11.31,18.58-21.48,17.15-1.89-.27-2.7,2.62-.8,2.89,9.31,1.31,14.89-6.42,19.93-12.91a31.88,31.88,0,0,1,9.83-8.89c4.83-2.6,10.2-2.54,15.5-1.81,1.89.26,2.71-2.63.8-2.89Z" transform="translate(-121.19 -74.49)"/><path class="cls-1" d="M495.43,192c7.83-.18,12.33-7.45,13.87-14.34,1.74-7.8,1.23-18.79,9.77-22.75a1.51,1.51,0,0,0-.36-2.74c-7.45-1.05-13.88,3.36-17.58,9.6a46.23,46.23,0,0,0-4.21,10.6c-1.19,4.06-3,9.57-8.1,9.75-1.92.07-1.93,3.07,0,3,7.82-.27,9.81-8.34,11.73-14.43,2.41-7.62,8-16.95,17.37-15.62l-.36-2.75c-6.69,3.1-8.9,10.59-9.94,17.3-1.11,7.14-2.59,19.16-12.19,19.38-1.93,0-1.93,3,0,3Z" transform="translate(-121.19 -74.49)"/><path class="cls-1" d="M517.23,151.27c-5.15-.05-11.79-1.15-16.22,2.13-3.93,2.9-6,10.69-11.75,10.12-1.92-.19-1.9,2.81,0,3,5.2.51,8.12-4.06,10.79-7.74,2-2.79,4.25-4.28,7.75-4.52,3.12-.21,6.3,0,9.43,0a1.5,1.5,0,0,0,0-3Z" transform="translate(-121.19 -74.49)"/><path class="cls-1" d="M520.24,150.74c-4.61-1.48-9.82-4-14.75-2.91-4.15.94-10.08,6.07-14.12,2.5-1.45-1.28-3.58.84-2.12,2.12,3.52,3.11,8.06,2,12,.27,3-1.36,5.63-2.61,9-1.93a85.32,85.32,0,0,1,9.22,2.84c1.84.59,2.63-2.31.8-2.89Z" transform="translate(-121.19 -74.49)"/><path class="cls-1" d="M470.86,150.13a16.67,16.67,0,0,0,3.68-6.77c.81-3.21.35-6.46.34-9.73,0-6.86,4.18-12.21,8.36-17.25.75-.91.35-2.66-1.06-2.57-10,.7-16,8-18.92,17-2.71,8.25-4.15,20-13.51,23.55-1.79.67-1,3.57.79,2.9,8-3,11.44-11.16,13.61-18.81,1.29-4.51,2.38-9.18,4.78-13.25a16.56,16.56,0,0,1,13.25-8.35l-1.06-2.56c-3.63,4.38-7.47,9-8.76,14.73-.7,3.07-.37,6.14-.32,9.25a14,14,0,0,1-3.3,9.78c-1.25,1.46.86,3.59,2.12,2.12Z" transform="translate(-121.19 -74.49)"/><path class="cls-1" d="M481.1,113c-9.61-1.11-21,4.72-26.07,12.93-2.25,3.66-3.55,7.83-5.89,11.44a12,12,0,0,1-5.53,4.82c-2.29.94-4.66,1.43-6.76,2.78-1.62,1-.12,3.64,1.51,2.59,3.77-2.42,8.2-2.59,11.39-6.07,2.74-3,4.22-6.84,5.95-10.44a23.89,23.89,0,0,1,9.15-10.61c4.85-3,10.49-5.11,16.25-4.44,1.92.22,1.9-2.78,0-3Z" transform="translate(-121.19 -74.49)"/><path class="cls-1" d="M481,112.7a19.42,19.42,0,0,0-19.65-1.79c-6.07,2.93-10.63,9.91-17.77,10.29-1.92.1-1.93,3.1,0,3,6.43-.34,10.73-5,15.67-8.5,6.22-4.43,13.9-5,20.24-.41,1.57,1.13,3.07-1.47,1.51-2.59Z" transform="translate(-121.19 -74.49)"/><path class="cls-1" d="M444.86,122.64c3.54-5.41,3.77-11.87,4.36-18.11.55-5.84,2-12.57,7.44-15.73a1.51,1.51,0,0,0-.75-2.8c-7.45.4-13.11,5.93-16.22,12.36a78.69,78.69,0,0,0-4.16,11.77c-1.17,3.83-2.31,9.46-6.52,11.09-1.78.69-1,3.59.8,2.9,7-2.72,8.09-11.9,10.13-18.17,2.43-7.49,7-16.47,16-17l-.76-2.79c-12.62,7.26-6,24.43-12.88,34.92-1.07,1.62,1.53,3.12,2.59,1.51Z" transform="translate(-121.19 -74.49)"/><path class="cls-1" d="M453,86.08c-10.39.3-22.6,2.58-28,12.64-2.72,5.08-2.4,11.16-5.07,16.24s-7.69,8.76-12.35,12.11c-1.56,1.11-.06,3.71,1.51,2.59,4-2.89,8.1-5.84,11.18-9.77,3.39-4.33,4.25-9.22,5.5-14.43,3.09-12.84,15.49-16,27.23-16.38,1.93,0,1.94-3,0-3Z" transform="translate(-121.19 -74.49)"/><path class="cls-1" d="M455.57,87.77c-4.17,3.57-3.6,9.08-3.12,14A32.28,32.28,0,0,1,449,120.13c-.89,1.71,1.7,3.23,2.59,1.51a35,35,0,0,0,4.07-15.39c.13-5.2-2.58-12.4,2-16.36,1.47-1.26-.66-3.37-2.12-2.12Z" transform="translate(-121.19 -74.49)"/><path class="cls-1" d="M505.72,151.36c5.22-3.11,7.12-9,7.89-14.68.88-6.49,1-16,8.38-18.75a1.5,1.5,0,0,0-.8-2.89c-6.9,1-14.63,2.65-18.51,9.1-2.11,3.51-2.69,7.73-4.95,11.17-2.41,3.68-6.21,6.11-10,8.13-1.71.91-.19,3.5,1.51,2.59a32.34,32.34,0,0,0,9.2-6.73c2.49-2.79,3.74-6.07,5-9.54,1.48-4,3.53-7.11,7.48-9,3.44-1.66,7.34-2.26,11.08-2.81l-.8-2.89c-6,2.22-8.66,8.12-9.62,14.06-1.09,6.73-.65,15.68-7.36,19.67a1.5,1.5,0,0,0,1.51,2.59Z" transform="translate(-121.19 -74.49)"/><path class="cls-1" d="M521.23,115.19a21.41,21.41,0,0,0-23.32,2.9c-3.72,3.24-6.13,7.64-9.52,11.18a16.29,16.29,0,0,1-6.6,4.47c-1.71.55-4-.14-5.42,1a1.51,1.51,0,0,0-.24,1.82l.08.12a1.47,1.47,0,0,0,1.29.74h.16a1.54,1.54,0,0,0,1.5-1.5v-.1c0-1.93-3-1.93-3,0v.1l1.5-1.5h-.16l1.3.75-.08-.12-.23,1.82c-.79.26-.7.37.26.3a8.9,8.9,0,0,0,1.55-.08,12.06,12.06,0,0,0,2.66-.6,17.22,17.22,0,0,0,4.83-2.69c3.57-2.75,6-6.52,8.79-10,5.72-7,14.64-10.22,23.14-6.09,1.73.84,3.25-1.74,1.51-2.59Z" transform="translate(-121.19 -74.49)"/><path class="cls-1" d="M521.84,114.85c-7-3.66-14.9-7.2-22.63-3.54-6.65,3.16-12.94,12.51-21.23,9.45-1.81-.67-2.59,2.23-.8,2.89,7.3,2.7,13.51-2.8,18.94-6.86,3.35-2.5,6.83-4.35,11.14-4.06,4.67.32,9,2.58,13.07,4.71,1.71.9,3.22-1.69,1.51-2.59Z" transform="translate(-121.19 -74.49)"/><path class="cls-1" d="M492.09,118.34c4.23-5.7,4.86-11.79,4.83-18.68a35.52,35.52,0,0,1,6-20.16c.82-1.21-.52-2.36-1.69-2.2a18.44,18.44,0,0,0-14.51,11.37c-2.74,6.7-2.21,16.22-9.14,20.41-1.65,1-.14,3.59,1.51,2.59,5.94-3.59,7.32-10.4,8.83-16.66.87-3.63,2-7.22,4.58-10a15.78,15.78,0,0,1,9.53-4.8l-1.7-2.2A37.94,37.94,0,0,0,494,96.09c-.3,3.79.27,7.63-.39,11.39a21.89,21.89,0,0,1-4.14,9.34c-1.15,1.55,1.45,3.05,2.59,1.52Z" transform="translate(-121.19 -74.49)"/><path class="cls-1" d="M500.84,77.2a23.38,23.38,0,0,0-21.64,7c-2.95,3.2-4.53,7-5.67,11.21-1.38,5-2.55,10.8-7.47,13.59a1.5,1.5,0,0,0,1.52,2.59c8.3-4.7,7.14-15,11.49-22.26a20.24,20.24,0,0,1,21-9.23c1.89.39,2.69-2.5.8-2.89Z" transform="translate(-121.19 -74.49)"/><path class="cls-1" d="M500.2,76.24A27.12,27.12,0,0,0,477,81.66c-3.82,3.14-5.81,7.58-9.12,11.14a20.67,20.67,0,0,1-13.44,6.45c-1.91.15-1.92,3.16,0,3a24,24,0,0,0,11.8-4.1c4-2.76,6.16-6.58,9-10.36a23.89,23.89,0,0,1,24.17-8.66c1.88.43,2.68-2.46.8-2.89Z" transform="translate(-121.19 -74.49)"/><path class="cls-1" d="M517.35,112.65c5.37-3.67,7.31-9.7,9.25-15.6,1.14-3.49,2.42-7,4.82-9.8a27.13,27.13,0,0,1,8.29-6.36,1.51,1.51,0,0,0-.75-2.8c-7.94.41-16.45,2.31-21.79,8.68a37.26,37.26,0,0,0-5.7,10.38c-1.43,3.59-2.59,9.24-6.73,10.64-1.82.61-1,3.51.79,2.89,3.35-1.13,5.23-3.87,6.59-7,1.62-3.73,2.78-7.62,4.76-11.19C521.49,84.21,530,81.56,539,81.09l-.76-2.79c-5.6,3-10.19,7.17-12.71,13.06-2.71,6.34-3.51,14.51-9.65,18.7-1.59,1.08-.09,3.68,1.51,2.59Z" transform="translate(-121.19 -74.49)"/><path class="cls-1" d="M538.51,77.17c-7-1.51-14.24-2.14-20.35,2.23C512.5,83.45,507,92.34,499,90.23a1.5,1.5,0,0,0-.8,2.89c7.17,1.89,12.85-3.25,17.68-7.81,2.7-2.55,5.52-5,9.22-5.89,4.16-1,8.55-.24,12.66.65,1.88.41,2.68-2.49.8-2.9Z" transform="translate(-121.19 -74.49)"/><path class="cls-1" d="M539.76,77.7c-5.48-3.59-12.22-3.9-18.43-2.27-6.93,1.81-12.91,6.64-20,7.62-1.9.26-1.09,3.15.8,2.89,6.28-.87,11.54-4.82,17.45-6.84,6.19-2.12,13-2.52,18.69,1.19,1.62,1.06,3.13-1.53,1.52-2.59Z" transform="translate(-121.19 -74.49)"/><path class="cls-1" d="M238.93,384.22c7-1.07,15.83-3.33,20.68-8.87,3.58-4.08,4-11-1.12-14.09a1.5,1.5,0,0,0-1.52,2.59c5.29,3.13,1.12,9.64-2.53,11.95-4.83,3.08-10.7,4.66-16.31,5.52-1.9.3-1.09,3.19.8,2.9Z" transform="translate(-121.19 -74.49)"/></svg>